<svg width="120" height="26" viewBox="0 0 120 26" fill="none" xmlns="http://www.w3.org/2000/svg">
<g clip-path="url(#clip0_30828_135)">
<path d="M10.9833 1.33203H25.0139L14.6986 16.6214H0.667969L10.9833 1.33203Z" fill="#5B37FF" style="fill:#5B37FF;fill:color(display-p3 0.3584 0.2144 1.0000);fill-opacity:1;"/>
<path d="M11.593 18.0373L7.59766 23.9593H22.2938L32.6091 8.66992H21.7625L15.4425 18.0373H11.593Z" fill="#5B37FF" style="fill:#5B37FF;fill:color(display-p3 0.3584 0.2144 1.0000);fill-opacity:1;"/>
</g>
<path d="M54.3654 10.6687C55.3139 11.0515 56.046 11.6006 56.5619 12.3161C57.0943 13.0316 57.3606 13.8803 57.3606 14.862C57.3606 15.9935 57.0777 16.9836 56.5119 17.8323C55.9628 18.6809 55.1891 19.3382 54.1907 19.8041C53.1923 20.2534 52.0358 20.478 50.7212 20.478H43.9571L44.1817 16.734V5.37723L43.9571 1.75803H50.7462C51.8611 1.75803 52.8345 1.98267 53.6665 2.43195C54.5151 2.88123 55.1641 3.51355 55.6134 4.32891C56.0793 5.14427 56.3123 6.08443 56.3123 7.14939C56.3123 7.91483 56.1459 8.59707 55.8131 9.19611C55.4803 9.79515 54.9977 10.286 54.3654 10.6687ZM47.2767 4.72827V9.34587H49.9475C51.0457 9.34587 51.8361 9.17115 52.3187 8.82171C52.8179 8.47227 53.0675 7.91483 53.0675 7.14939C53.0675 6.33403 52.8179 5.72667 52.3187 5.32731C51.8361 4.92795 51.0623 4.72827 49.9974 4.72827H47.2767ZM50.7212 17.5078C51.8028 17.5078 52.6348 17.2748 53.2172 16.8089C53.8163 16.343 54.1158 15.694 54.1158 14.862C54.1158 13.1647 53.0009 12.3161 50.7711 12.3161H47.2767V17.5078H50.7212ZM66.6317 5.32731C67.6966 5.32731 68.5037 5.44379 69.0528 5.67675L68.5536 8.32251L68.2291 8.54715C68.0128 8.39739 67.7049 8.28091 67.3056 8.19771C66.9062 8.09787 66.4569 8.04795 65.9577 8.04795C64.8262 8.04795 63.9277 8.52219 63.2621 9.47067V16.734L63.4617 20.478H60.0173L60.2419 16.734V9.12123L60.0173 5.50203H62.7629L63.1872 7.12443C63.6198 6.52539 64.1273 6.07611 64.7097 5.77659C65.3088 5.47707 65.9494 5.32731 66.6317 5.32731ZM70.2169 16.3097C70.2169 15.3446 70.4416 14.4793 70.8908 13.7139C71.3401 12.9318 71.9475 12.3244 72.7129 11.8918C73.4784 11.4425 74.3187 11.2179 75.2339 11.2179C75.9993 11.2179 76.7148 11.2844 77.3804 11.4175C78.046 11.5507 78.5868 11.7337 79.0028 11.9667V10.5689C79.0028 9.75355 78.7366 9.13787 78.2041 8.72187C77.6883 8.30587 76.9228 8.09787 75.9078 8.09787C74.9094 8.09787 74.0192 8.27259 73.2371 8.62203C72.455 8.97147 71.856 9.47067 71.44 10.1196L71.1654 10.0697L71.5648 6.79995C72.1139 6.28411 72.8128 5.88475 73.6614 5.60187C74.5267 5.30235 75.4252 5.15259 76.3571 5.15259C78.1043 5.15259 79.4854 5.57691 80.5004 6.42555C81.5155 7.27419 82.023 8.44731 82.023 9.94491V16.759L82.2227 20.478H79.0777L79.0028 19.0303C78.6867 19.5628 78.1459 20.0038 77.3804 20.3532C76.615 20.7027 75.7996 20.8774 74.9344 20.8774C73.47 20.8774 72.3136 20.4697 71.4649 19.6543C70.6329 18.839 70.2169 17.7241 70.2169 16.3097ZM73.3369 16.0851C73.3369 16.8172 73.5033 17.358 73.8361 17.7075C74.1689 18.0403 74.718 18.2067 75.4835 18.2067C76.1158 18.2067 76.7648 18.0819 77.4304 17.8323C78.096 17.566 78.6201 17.2249 79.0028 16.8089V14.5875C78.6035 14.3545 78.0876 14.1715 77.4553 14.0383C76.8396 13.8886 76.199 13.8137 75.5334 13.8137C74.768 13.8137 74.2105 14.0051 73.8611 14.3878C73.5116 14.7539 73.3369 15.3196 73.3369 16.0851ZM87.0645 3.70491C86.5154 3.70491 86.0412 3.54683 85.6418 3.23067C85.2591 2.91451 85.0677 2.50683 85.0677 2.00763C85.0677 1.50843 85.2591 1.10075 85.6418 0.784587C86.0412 0.468427 86.5154 0.310347 87.0645 0.310347C87.6303 0.310347 88.1045 0.468427 88.4873 0.784587C88.8866 1.10075 89.0863 1.50843 89.0863 2.00763C89.0863 2.50683 88.8866 2.91451 88.4873 3.23067C88.1045 3.54683 87.6303 3.70491 87.0645 3.70491ZM85.542 16.734V9.12123L85.3423 5.50203H88.7868L88.5621 9.12123V16.734L88.7868 20.478H85.3423L85.542 16.734ZM100.382 16.734V10.2444C100.382 9.54555 100.216 9.01307 99.8829 8.64699C99.5501 8.28091 99.0592 8.09787 98.4102 8.09787C97.8611 8.09787 97.3037 8.24763 96.7379 8.54715C96.1721 8.84667 95.6979 9.29595 95.3152 9.89499V16.734L95.5149 20.478H92.0704L92.295 16.734V9.12123L92.0704 5.50203H94.816L95.3152 7.39899C95.7645 6.71675 96.3552 6.20091 97.0873 5.85147C97.8361 5.50203 98.6765 5.32731 99.6083 5.32731C100.79 5.32731 101.713 5.69339 102.379 6.42555C103.061 7.15771 103.402 8.22267 103.402 9.62043V16.734L103.602 20.478H100.182L100.382 16.734ZM106.17 16.3097C106.17 15.3446 106.395 14.4793 106.844 13.7139C107.293 12.9318 107.901 12.3244 108.666 11.8918C109.431 11.4425 110.272 11.2179 111.187 11.2179C111.952 11.2179 112.668 11.2844 113.334 11.4175C113.999 11.5507 114.54 11.7337 114.956 11.9667V10.5689C114.956 9.75355 114.69 9.13787 114.157 8.72187C113.641 8.30587 112.876 8.09787 111.861 8.09787C110.863 8.09787 109.972 8.27259 109.19 8.62203C108.408 8.97147 107.809 9.47067 107.393 10.1196L107.119 10.0697L107.518 6.79995C108.067 6.28411 108.766 5.88475 109.615 5.60187C110.48 5.30235 111.378 5.15259 112.31 5.15259C114.057 5.15259 115.439 5.57691 116.454 6.42555C117.469 7.27419 117.976 8.44731 117.976 9.94491V16.759L118.176 20.478H115.031L114.956 19.0303C114.64 19.5628 114.099 20.0038 113.334 20.3532C112.568 20.7027 111.753 20.8774 110.887 20.8774C109.423 20.8774 108.267 20.4697 107.418 19.6543C106.586 18.839 106.17 17.7241 106.17 16.3097ZM109.29 16.0851C109.29 16.8172 109.456 17.358 109.789 17.7075C110.122 18.0403 110.671 18.2067 111.437 18.2067C112.069 18.2067 112.718 18.0819 113.383 17.8323C114.049 17.566 114.573 17.2249 114.956 16.8089V14.5875C114.557 14.3545 114.041 14.1715 113.408 14.0383C112.793 13.8886 112.152 13.8137 111.487 13.8137C110.721 13.8137 110.164 14.0051 109.814 14.3878C109.465 14.7539 109.29 15.3196 109.29 16.0851Z" fill="#0A0A0A" style="fill:#0A0A0A;fill:color(display-p3 0.0392 0.0392 0.0392);fill-opacity:1;"/>
<defs>
<clipPath id="clip0_30828_135">
<rect width="33.277" height="25.956" fill="white" style="fill:white;fill-opacity:1;"/>
</clipPath>
</defs>
</svg>
