<svg width="112" height="27" viewBox="0 0 112 27" fill="none" xmlns="http://www.w3.org/2000/svg">
<g clip-path="url(#clip0_30828_131)">
<path d="M6.35681 2.90015C9.35223 2.90015 11.7805 5.37437 11.7805 8.42644V18.0975C11.7805 18.3519 11.9829 18.5581 12.2325 18.5581C12.4821 18.5581 12.6845 18.3519 12.6845 18.0975V8.42644C12.6845 5.37436 15.1128 2.90015 18.1082 2.90015H25.3399C28.8345 2.90015 31.6675 5.78673 31.6675 9.34752V11.6573C31.6675 13.2085 31.1188 14.7081 30.1218 15.8803L23.9265 23.1633H16.7497L26.0231 12.2609L26.0734 12.1961C26.184 12.0399 26.2438 11.8513 26.2438 11.6573V9.34752C26.2438 8.83882 25.8391 8.42644 25.3399 8.42644H19.0122V7.96594C19.0122 7.71159 18.8098 7.50541 18.5602 7.50541C18.3105 7.50541 18.1082 7.71159 18.1082 7.96594V17.637C18.1082 20.6891 15.6799 23.1633 12.6845 23.1633H11.7805C8.78507 23.1633 6.35681 20.6891 6.35681 17.637V7.96594C6.35681 7.71159 6.15445 7.50541 5.9048 7.50541C5.6552 7.50541 5.45284 7.71159 5.45284 7.96594V23.1633H0.0291138V8.42644C0.0291138 5.37436 2.4574 2.90015 5.45284 2.90015H6.35681Z" fill="#FC5800" style="fill:#FC5800;fill:color(display-p3 0.9882 0.3451 0.0000);fill-opacity:1;"/>
</g>
<path d="M38.5366 17.2868V5.47678L38.303 1.71315H41.9628L41.7551 5.47678V17.2868L41.9628 21.1802H38.303L38.5366 17.2868ZM54.1674 17.2868V10.5382C54.1674 9.81143 53.9943 9.25771 53.6482 8.87702C53.3022 8.49633 52.7917 8.30599 52.1168 8.30599C51.5458 8.30599 50.9661 8.46172 50.3778 8.77319C49.7894 9.08467 49.2963 9.55187 48.8983 10.1748V17.2868L49.1059 21.1802H45.524L45.7576 17.2868V9.37018L45.524 5.60656H48.3792L48.8983 7.57922C49.3655 6.86975 49.9798 6.33333 50.7412 5.96994C51.5198 5.60656 52.3937 5.42487 53.3627 5.42487C54.5913 5.42487 55.5517 5.80555 56.2438 6.56693C56.9533 7.32831 57.308 8.43576 57.308 9.8893V17.2868L57.5157 21.1802H53.9597L54.1674 17.2868ZM60.394 6.51502L62.0552 5.60656C62.0552 3.6339 62.3753 2.20632 63.0155 1.32381C63.6731 0.441308 64.7027 5.57948e-05 66.1043 5.57948e-05C66.9522 5.57948e-05 67.6963 0.0952277 68.3365 0.285572C68.9768 0.458613 69.4699 0.718173 69.816 1.06425L69.4526 3.34838L69.0114 3.60794C68.5961 3.19265 67.9039 2.985 66.9349 2.985C66.3292 2.985 65.888 3.14939 65.6111 3.47816C65.3343 3.78964 65.1958 4.27415 65.1958 4.9317V5.60656H69.5045V8.5915H65.1958V17.2868L65.4294 21.1802H61.8475L62.0552 17.2868V8.5915H60.394V6.51502ZM77.6564 21.4916C75.3376 21.4916 73.6591 20.8081 72.6209 19.4411C71.5999 18.0741 71.0895 16.0495 71.0895 13.3674C71.0895 10.7372 71.6346 8.72128 72.7247 7.31966C73.8149 5.90073 75.4587 5.19126 77.6564 5.19126C79.7674 5.19126 81.3335 5.73634 82.3544 6.82649C83.3926 7.91665 83.9983 9.64705 84.1713 12.0177L83.4705 14.6393H74.3859C74.4378 15.591 74.5935 16.3351 74.8531 16.8715C75.1127 17.4079 75.5107 17.7972 76.0471 18.0395C76.6008 18.2818 77.3535 18.4029 78.3053 18.4029C79.43 18.4029 80.425 18.2904 81.2902 18.0655C82.1727 17.8405 82.8303 17.5463 83.2629 17.1829L83.7041 17.4166L83.0033 20.1679C82.363 20.6524 81.6276 20.9898 80.797 21.1802C79.9837 21.3878 78.9368 21.4916 77.6564 21.4916ZM80.9528 12.1734C80.9355 10.8237 80.6759 9.83739 80.1741 9.21445C79.6723 8.5915 78.8676 8.28003 77.7602 8.28003C76.5835 8.28003 75.7356 8.5742 75.2165 9.16253C74.7147 9.75087 74.4292 10.7545 74.3599 12.1734H80.9528ZM93.7698 5.42487C94.8772 5.42487 95.7165 5.54599 96.2875 5.78825L95.7684 8.53959L95.431 8.77319C95.206 8.61746 94.8859 8.49633 94.4706 8.40981C94.0553 8.30599 93.5881 8.25407 93.069 8.25407C91.8923 8.25407 90.9579 8.74724 90.2657 9.73357V17.2868L90.4734 21.1802H86.8914L87.125 17.2868V9.37018L86.8914 5.60656H89.7466L90.1878 7.2937C90.6377 6.67076 91.1655 6.20355 91.7712 5.89207C92.3941 5.5806 93.0603 5.42487 93.7698 5.42487ZM97.4981 16.8455C97.4981 15.8419 97.7317 14.9421 98.1989 14.1461C98.6661 13.3328 99.2977 12.7012 100.094 12.2513C100.89 11.7841 101.764 11.5505 102.715 11.5505C103.511 11.5505 104.255 11.6197 104.947 11.7581C105.64 11.8966 106.202 12.0869 106.635 12.3292V10.8756C106.635 10.0277 106.358 9.38749 105.804 8.95489C105.268 8.52229 104.472 8.30599 103.416 8.30599C102.378 8.30599 101.452 8.48768 100.639 8.85106C99.8255 9.21445 99.2026 9.73357 98.77 10.4084L98.4844 10.3565L98.8997 6.95627C99.4708 6.41985 100.198 6.00455 101.08 5.71038C101.98 5.39891 102.914 5.24317 103.883 5.24317C105.7 5.24317 107.136 5.68443 108.192 6.56693C109.248 7.44944 109.775 8.66937 109.775 10.2267V17.3127L109.983 21.1802H106.713L106.635 19.6747C106.306 20.2285 105.743 20.687 104.947 21.0504C104.152 21.4138 103.304 21.5955 102.404 21.5955C100.881 21.5955 99.6784 21.1715 98.7959 20.3236C97.9307 19.4757 97.4981 18.3164 97.4981 16.8455ZM100.743 16.6119C100.743 17.3733 100.916 17.9357 101.262 18.2991C101.608 18.6451 102.179 18.8182 102.975 18.8182C103.632 18.8182 104.307 18.6884 104.999 18.4288C105.692 18.152 106.237 17.7972 106.635 17.3646V15.0546C106.219 14.8123 105.683 14.622 105.025 14.4835C104.385 14.3278 103.719 14.2499 103.027 14.2499C102.231 14.2499 101.651 14.4489 101.288 14.8469C100.924 15.2276 100.743 15.8159 100.743 16.6119Z" fill="#0A0A0A" style="fill:#0A0A0A;fill:color(display-p3 0.0392 0.0392 0.0392);fill-opacity:1;"/>
<defs>
<clipPath id="clip0_30828_131">
<rect width="32" height="21" fill="white" style="fill:white;fill-opacity:1;" transform="translate(0 2.68018)"/>
</clipPath>
</defs>
</svg>
