<svg width="121" height="28" viewBox="0 0 121 28" fill="none" xmlns="http://www.w3.org/2000/svg">
<path d="M14.2908 20.859C14.3141 18.4766 13.7101 16.5393 12.9418 16.5318C12.1735 16.5243 11.5317 18.4495 11.5085 20.8318C11.4852 23.2142 12.0892 25.1517 12.8575 25.1591C13.6258 25.1667 14.2675 23.2414 14.2908 20.859Z" fill="#95AC8E" style="fill:#95AC8E;fill:color(display-p3 0.5861 0.6732 0.5570);fill-opacity:1;"/>
<path d="M9.83666 20.3171C11.1444 18.3255 11.6838 16.3692 11.0415 15.9474C10.3992 15.5257 8.81846 16.7983 7.51079 18.7898C6.20308 20.7814 5.66366 22.7377 6.30591 23.1595C6.94822 23.5812 8.52894 22.3086 9.83666 20.3171Z" fill="#95AC8E" style="fill:#95AC8E;fill:color(display-p3 0.5861 0.6732 0.5570);fill-opacity:1;"/>
<path d="M6.37596 17.4598C8.55284 16.4916 10.0644 15.1375 9.75206 14.4354C9.43981 13.7334 7.42199 13.9492 5.24511 14.9175C3.06825 15.8858 1.55671 17.2399 1.86898 17.9419C2.18126 18.644 4.1991 18.4282 6.37596 17.4598Z" fill="#95AC8E" style="fill:#95AC8E;fill:color(display-p3 0.5861 0.6732 0.5570);fill-opacity:1;"/>
<path d="M9.48582 12.4678C9.60272 11.7084 7.78855 10.799 5.43382 10.4365C3.07903 10.0741 1.07536 10.3959 0.95847 11.1554C0.841585 11.9148 2.65575 12.8242 5.01052 13.1866C7.36526 13.5491 9.36896 13.2272 9.48582 12.4678Z" fill="#95AC8E" style="fill:#95AC8E;fill:color(display-p3 0.5861 0.6732 0.5570);fill-opacity:1;"/>
<path d="M10.3366 10.6589C10.8454 10.0832 9.81071 8.33742 8.02551 6.75966C6.24031 5.1819 4.38062 4.3696 3.87179 4.94534C3.36296 5.52109 4.39767 7.26684 6.18289 8.8446C7.9681 10.4224 9.82779 11.2346 10.3366 10.6589Z" fill="#95AC8E" style="fill:#95AC8E;fill:color(display-p3 0.5861 0.6732 0.5570);fill-opacity:1;"/>
<path d="M12.018 9.60108C12.7574 9.39187 12.8308 7.36382 12.1821 5.07135C11.5334 2.77887 10.4082 1.09005 9.66886 1.29926C8.92953 1.50847 8.85608 3.53648 9.50477 5.82899C10.1535 8.12142 11.2787 9.81028 12.018 9.60108Z" fill="#95AC8E" style="fill:#95AC8E;fill:color(display-p3 0.5861 0.6732 0.5570);fill-opacity:1;"/>
<path d="M16.5908 5.90036C17.2846 3.62111 17.2512 1.59203 16.5161 1.36828C15.781 1.14453 14.6227 2.81084 13.9289 5.09008C13.2351 7.36931 13.2686 9.3984 14.0036 9.62214C14.7387 9.84588 15.897 8.17961 16.5908 5.90036Z" fill="#95AC8E" style="fill:#95AC8E;fill:color(display-p3 0.5861 0.6732 0.5570);fill-opacity:1;"/>
<path d="M19.8573 8.98072C21.673 7.43815 22.7417 5.71296 22.2441 5.12741C21.7467 4.54184 19.8714 5.31765 18.0558 6.86016C16.24 8.40273 15.1714 10.1279 15.6689 10.7135C16.1664 11.2991 18.0416 10.5233 19.8573 8.98072Z" fill="#95AC8E" style="fill:#95AC8E;fill:color(display-p3 0.5861 0.6732 0.5570);fill-opacity:1;"/>
<path d="M20.937 13.3386C23.2985 13.0226 25.1302 12.1491 25.0283 11.3875C24.9264 10.626 22.9295 10.2647 20.568 10.5806C18.2066 10.8966 16.3748 11.77 16.4767 12.5316C16.5786 13.2932 18.5755 13.6545 20.937 13.3386Z" fill="#95AC8E" style="fill:#95AC8E;fill:color(display-p3 0.5861 0.6732 0.5570);fill-opacity:1;"/>
<path d="M23.9823 18.1609C24.3084 17.4652 22.8238 16.0816 20.6665 15.0706C18.5092 14.0595 16.496 13.804 16.1699 14.4997C15.8438 15.1955 17.3284 16.5791 19.4857 17.5901C21.643 18.6011 23.6562 18.8567 23.9823 18.1609Z" fill="#95AC8E" style="fill:#95AC8E;fill:color(display-p3 0.5861 0.6732 0.5570);fill-opacity:1;"/>
<path d="M19.4438 23.2936C20.0943 22.8846 19.5935 20.918 18.3254 18.901C17.0572 16.8841 15.5018 15.5806 14.8514 15.9896C14.2009 16.3986 14.7017 18.3652 15.9698 20.3821C17.238 22.3991 18.7934 23.7026 19.4438 23.2936Z" fill="#95AC8E" style="fill:#95AC8E;fill:color(display-p3 0.5861 0.6732 0.5570);fill-opacity:1;"/>
<path d="M32.5205 22V3.57223H36.272V18.8696H45.5999V22H32.5205ZM47.4376 15.0801C47.4376 13.8972 47.7291 12.7523 48.3121 11.6455C48.8951 10.5386 49.7189 9.6937 50.7835 9.1107C51.8566 8.52771 53.0521 8.23621 54.3702 8.23621C56.4065 8.23621 58.0752 8.89947 59.3764 10.226C60.6776 11.5441 61.3281 13.2128 61.3281 15.2322C61.3281 17.2684 60.6691 18.9583 59.351 20.3017C58.0414 21.6367 56.3896 22.3042 54.3956 22.3042C53.162 22.3042 51.9833 22.0253 50.8595 21.4677C49.7443 20.91 48.8951 20.0947 48.3121 19.0216C47.7291 17.9401 47.4376 16.6263 47.4376 15.0801ZM51.0877 15.2702C51.0877 16.6052 51.4045 17.6275 52.0382 18.3373C52.6719 19.047 53.4535 19.4019 54.3829 19.4019C55.3123 19.4019 56.0896 19.047 56.7149 18.3373C57.3486 17.6275 57.6654 16.5967 57.6654 15.2448C57.6654 13.9268 57.3486 12.9129 56.7149 12.2031C56.0896 11.4934 55.3123 11.1385 54.3829 11.1385C53.4535 11.1385 52.6719 11.4934 52.0382 12.2031C51.4045 12.9129 51.0877 13.9352 51.0877 15.2702ZM63.3053 15.0801C63.3053 13.8972 63.5968 12.7523 64.1798 11.6455C64.7628 10.5386 65.5866 9.6937 66.6512 9.1107C67.7242 8.52771 68.9198 8.23621 70.2379 8.23621C72.2741 8.23621 73.9428 8.89947 75.244 10.226C76.5452 11.5441 77.1958 13.2128 77.1958 15.2322C77.1958 17.2684 76.5368 18.9583 75.2187 20.3017C73.909 21.6367 72.2572 22.3042 70.2632 22.3042C69.0296 22.3042 67.8509 22.0253 66.7272 21.4677C65.6119 20.91 64.7628 20.0947 64.1798 19.0216C63.5968 17.9401 63.3053 16.6263 63.3053 15.0801ZM66.9553 15.2702C66.9553 16.6052 67.2722 17.6275 67.9059 18.3373C68.5396 19.047 69.3211 19.4019 70.2505 19.4019C71.1799 19.4019 71.9573 19.047 72.5825 18.3373C73.2162 17.6275 73.5331 16.5967 73.5331 15.2448C73.5331 13.9268 73.2162 12.9129 72.5825 12.2031C71.9573 11.4934 71.1799 11.1385 70.2505 11.1385C69.3211 11.1385 68.5396 11.4934 67.9059 12.2031C67.2722 12.9129 66.9553 13.9352 66.9553 15.2702ZM79.8446 27.1583V8.54038H81.9231V10.2894C82.4132 9.60498 82.9666 9.0938 83.5834 8.75584C84.2002 8.40942 84.948 8.23621 85.8267 8.23621C86.9758 8.23621 87.9897 8.53193 88.8684 9.12338C89.7471 9.71482 90.4104 10.5513 90.8582 11.6328C91.306 12.7058 91.5299 13.8845 91.5299 15.1688C91.5299 16.546 91.2807 17.7881 90.7822 18.8949C90.2921 19.9933 89.5739 20.8382 88.6276 21.4297C87.6897 22.0127 86.7012 22.3042 85.6619 22.3042C84.9015 22.3042 84.2171 22.1436 83.6088 21.8226C83.0089 21.5015 82.5146 21.0959 82.1259 20.6059V27.1583H79.8446ZM81.9105 15.3462C81.9105 17.0783 82.2611 18.3584 82.9624 19.1864C83.6637 20.0144 84.5128 20.4284 85.5098 20.4284C86.5237 20.4284 87.3898 20.0018 88.108 19.1484C88.8346 18.2866 89.1979 16.9558 89.1979 15.1561C89.1979 13.4409 88.8431 12.1566 88.1333 11.3033C87.432 10.4499 86.5913 10.0232 85.6112 10.0232C84.6396 10.0232 83.7777 10.4795 83.0258 11.392C82.2822 12.2961 81.9105 13.6141 81.9105 15.3462ZM96.3967 22H94.2801V3.42015H96.5614V10.0486C97.5246 8.84033 98.754 8.23621 100.25 8.23621C101.078 8.23621 101.859 8.40519 102.594 8.74316C103.338 9.07268 103.946 9.54161 104.419 10.15C104.901 10.7499 105.277 11.4765 105.547 12.3299C105.818 13.1832 105.953 14.0957 105.953 15.0674C105.953 17.374 105.382 19.1568 104.242 20.4158C103.101 21.6747 101.732 22.3042 100.135 22.3042C98.547 22.3042 97.3007 21.6409 96.3967 20.3144V22ZM96.3713 15.1688C96.3713 16.7826 96.591 17.9486 97.0304 18.6668C97.7485 19.8412 98.7202 20.4284 99.9453 20.4284C100.942 20.4284 101.804 19.9975 102.531 19.1357C103.257 18.2654 103.621 16.9727 103.621 15.2575C103.621 13.5001 103.27 12.2031 102.569 11.3666C101.876 10.5302 101.035 10.1119 100.047 10.1119C99.0497 10.1119 98.1879 10.5471 97.4613 11.4173C96.7346 12.2792 96.3713 13.5296 96.3713 15.1688ZM108.754 6.04363V3.42015H111.035V6.04363H108.754ZM108.754 22V8.54038H111.035V22H108.754ZM119.501 19.9595L119.831 21.9747C119.188 22.1098 118.614 22.1774 118.107 22.1774C117.279 22.1774 116.637 22.0465 116.181 21.7845C115.724 21.5226 115.403 21.1804 115.217 20.758C115.031 20.3271 114.938 19.4272 114.938 18.0584V10.3147H113.266V8.54038H114.938V5.20716L117.207 3.83838V8.54038H119.501V10.3147H117.207V18.1852C117.207 18.8358 117.245 19.254 117.321 19.4399C117.406 19.6258 117.537 19.7736 117.714 19.8835C117.9 19.9933 118.162 20.0482 118.5 20.0482C118.753 20.0482 119.087 20.0187 119.501 19.9595Z" fill="#0A0A0A" style="fill:#0A0A0A;fill:color(display-p3 0.0392 0.0392 0.0392);fill-opacity:1;"/>
</svg>
