<svg width="114" height="26" viewBox="0 0 114 26" fill="none" xmlns="http://www.w3.org/2000/svg">
<g clip-path="url(#clip0_30828_127)">
<path d="M27.52 19.875L19.84 25.5H3.2L4.48 22.375L7.68 19.875H18.56L20.48 22.375L25.6 7.375L28.8 4.875H32L27.52 19.875ZM27.52 3.625L24.32 6.125H13.44L11.52 3.625L6.4 18.625L3.2 21.125H0L4.48 6.125L12.16 0.5H28.8L27.52 3.625ZM15.36 8.625H22.4L18.56 19.875L16.64 17.375H9.6L13.44 6.125L15.36 8.625Z" fill="#297AFF" style="fill:#297AFF;fill:color(display-p3 0.1608 0.4784 1.0000);fill-opacity:1;"/>
</g>
<path d="M39.0341 22V3.83078H42.0839L50.2861 16.2378V3.83078H53.3099V22H50.8052L42.045 8.85327V22H39.0341ZM62.7159 22.2596C61.1759 22.2596 59.8867 21.9481 58.8485 21.3251C57.8189 20.7022 57.0402 19.8803 56.5125 18.8593C55.9933 17.8297 55.7338 16.7006 55.7338 15.4721C55.7338 14.2867 55.976 13.1966 56.4605 12.2016C56.9537 11.198 57.6675 10.3977 58.6019 9.80067C59.545 9.19503 60.6871 8.89221 62.0281 8.89221C63.2048 8.89221 64.2084 9.13014 65.039 9.606C65.8696 10.0819 66.5012 10.7394 66.9338 11.5787C67.3751 12.4092 67.5957 13.361 67.5957 14.4338C67.5957 14.6761 67.5784 14.9313 67.5438 15.1995C67.5178 15.4591 67.4789 15.7273 67.427 16.0042H58.7317C58.8528 16.9472 59.1167 17.6956 59.5234 18.2494C59.93 18.8031 60.4361 19.2054 61.0418 19.4563C61.6474 19.6986 62.3007 19.8197 63.0015 19.8197C63.6936 19.8197 64.3598 19.7375 65.0001 19.5731C65.649 19.4001 66.2503 19.1665 66.804 18.8723L67.0246 21.2732C66.5315 21.5155 65.9215 21.7404 65.1948 21.9481C64.468 22.1557 63.6417 22.2596 62.7159 22.2596ZM58.8615 14.0315H64.6367C64.6367 13.5643 64.5458 13.1274 64.3642 12.7207C64.1911 12.3054 63.9099 11.9723 63.5206 11.7214C63.1399 11.4619 62.6381 11.3321 62.0151 11.3321C61.1067 11.3321 60.3972 11.5787 59.8867 12.0718C59.3849 12.565 59.0432 13.2182 58.8615 14.0315ZM68.4851 22L72.8327 15.5629L68.524 9.11283H71.9113L74.5847 13.3437L77.0376 9.11283H80.4768L76.207 15.498L80.5287 22H77.1284L74.455 17.7821L71.8853 22H68.4851ZM82.3417 22V9.11283H85.2358V22H82.3417ZM82.3417 6.8287V3.83078H85.2358V6.8287H82.3417ZM91.8668 22L86.9222 9.11283H89.8812L93.2165 18.5219L96.5259 9.11283H99.4979L94.5662 22H91.8668ZM106.697 22.2596C105.312 22.2596 104.131 21.9567 103.154 21.3511C102.185 20.7455 101.441 19.9365 100.922 18.9242C100.411 17.9119 100.156 16.7958 100.156 15.5759C100.156 14.3559 100.411 13.2355 100.922 12.2146C101.441 11.1936 102.185 10.3804 103.154 9.77471C104.131 9.16042 105.312 8.85327 106.697 8.85327C108.072 8.85327 109.249 9.16042 110.227 9.77471C111.205 10.3804 111.949 11.1936 112.459 12.2146C112.978 13.2355 113.238 14.3559 113.238 15.5759C113.238 16.7958 112.978 17.9119 112.459 18.9242C111.949 19.9365 111.205 20.7455 110.227 21.3511C109.249 21.9567 108.072 22.2596 106.697 22.2596ZM106.697 19.8197C107.839 19.8197 108.717 19.4347 109.331 18.6647C109.954 17.886 110.266 16.8564 110.266 15.5759C110.266 14.2781 109.954 13.2398 109.331 12.4612C108.717 11.6825 107.839 11.2931 106.697 11.2931C105.555 11.2931 104.672 11.6825 104.049 12.4612C103.426 13.2398 103.115 14.2781 103.115 15.5759C103.115 16.8564 103.426 17.886 104.049 18.6647C104.672 19.4347 105.555 19.8197 106.697 19.8197Z" fill="#0A0A0A" style="fill:#0A0A0A;fill:color(display-p3 0.0392 0.0392 0.0392);fill-opacity:1;"/>
<defs>
<clipPath id="clip0_30828_127">
<rect width="32" height="25" fill="white" style="fill:white;fill-opacity:1;" transform="translate(0 0.5)"/>
</clipPath>
</defs>
</svg>
