<svg width="123" height="30" viewBox="0 0 123 30" fill="none" xmlns="http://www.w3.org/2000/svg">
<g clip-path="url(#clip0_30828_108)">
<path d="M17.4 0H11.6V8.74582C11.5756 10.3265 10.2867 11.6 8.70036 11.6H0V17.4H6.29756C7.8358 17.4 9.3111 16.7889 10.3987 15.7013L15.7013 10.3987C16.7889 9.3111 17.4 7.8358 17.4 6.29756V0Z" fill="url(#paint0_linear_30828_108)" style=""/>
<path d="M11.5996 29H17.3996V20.2542C17.424 18.6735 18.7129 17.4 20.2992 17.4H28.9996V11.6H22.702C21.1638 11.6 19.6885 12.2111 18.6009 13.2987L13.2984 18.6012C12.2107 19.6889 11.5996 21.1642 11.5996 22.7024V29Z" fill="url(#paint1_linear_30828_108)" style=""/>
</g>
<path d="M41.5627 26.2535C40.6586 26.2535 39.9236 26.0929 39.3575 25.7719C38.7914 25.4424 38.3562 24.9776 38.052 24.3777C37.7479 23.7779 37.5366 23.0723 37.4184 22.2612C37.3085 21.4416 37.2536 20.5376 37.2536 19.549V17.3818H39.801V19.6504C39.801 21.2135 39.9109 22.333 40.1306 23.009C40.3587 23.6765 40.8445 24.0102 41.5881 24.0102C42.1035 24.0102 42.4794 23.8919 42.716 23.6553C42.961 23.4103 43.1174 23.0216 43.185 22.4893C43.2525 21.957 43.2863 21.2558 43.2863 20.3855C43.2863 19.3885 43.1089 18.5309 42.754 17.8127C42.4076 17.0945 41.9049 16.4059 41.2459 15.7469L39.7884 14.2894C39.3659 13.8585 38.9519 13.3895 38.5463 12.8826C38.1408 12.3672 37.8028 11.7842 37.5324 11.1336C37.2705 10.483 37.1395 9.73946 37.1395 8.90299C37.1395 7.77924 37.2578 6.80758 37.4944 5.988C37.731 5.16843 38.1619 4.53474 38.7871 4.08693C39.4124 3.63912 40.2995 3.41521 41.4486 3.41521C42.3527 3.41521 43.0751 3.57152 43.6159 3.88415C44.1651 4.19677 44.5749 4.64458 44.8452 5.22757C45.1241 5.80212 45.3057 6.48651 45.3902 7.28074C45.4831 8.07496 45.5296 8.95368 45.5296 9.91689V11.235H43.0202V9.73946C43.0202 8.83539 42.9822 8.08341 42.9061 7.48352C42.8385 6.87517 42.6949 6.41891 42.4752 6.11474C42.2555 5.81057 41.9133 5.65848 41.4486 5.65848C41.0262 5.65848 40.6798 5.7641 40.4094 5.97533C40.1475 6.17811 39.9573 6.49496 39.8391 6.92587C39.7208 7.35678 39.6616 7.9102 39.6616 8.58614C39.6616 9.17759 39.7334 9.66764 39.8771 10.0563C40.0207 10.4365 40.2362 10.7914 40.5234 11.1209C40.8192 11.4504 41.1783 11.8391 41.6007 12.2869L43.1216 13.8965C43.9243 14.733 44.5791 15.6708 45.086 16.7101C45.6014 17.7409 45.8591 18.9407 45.8591 20.3094C45.8591 21.543 45.7366 22.6034 45.4916 23.4906C45.255 24.3777 44.8283 25.0621 44.2115 25.5437C43.5947 26.0169 42.7118 26.2535 41.5627 26.2535ZM47.9503 29.1811V27.2167H48.8502C49.2219 27.2167 49.543 27.1956 49.8134 27.1533C50.0922 27.1195 50.2612 27.0393 50.3203 26.9125C50.4217 26.7773 50.4597 26.5619 50.4344 26.2662C50.4175 25.9789 50.3837 25.6663 50.333 25.3283L47.2279 6.98924H49.75L51.1188 16.8748L51.6764 22.0204H51.9046L52.3988 16.8748L53.6409 6.98924H56.1503L52.9945 26.3675C52.8931 27.0519 52.7664 27.6011 52.6143 28.0151C52.4622 28.4292 52.2256 28.7249 51.9046 28.9023C51.5919 29.0882 51.123 29.1811 50.4978 29.1811H47.9503ZM58.4062 26V6.98924H61.0044V9.00438C61.1734 8.41293 61.5325 7.88908 62.0817 7.43282C62.6393 6.97656 63.3026 6.74843 64.0714 6.74843C65.0262 6.74843 65.7697 7.0864 66.302 7.76234C66.8343 8.43828 67.1005 9.46486 67.1005 10.8421V26H64.5024V10.8548C64.5024 10.1788 64.3503 9.68877 64.0461 9.38459C63.7419 9.08042 63.3533 8.92834 62.8801 8.92834C62.5337 8.92834 62.2168 9.00438 61.9296 9.15646C61.6423 9.30855 61.4142 9.54513 61.2452 9.8662C61.0846 10.1873 61.0044 10.6013 61.0044 11.1082V26H58.4062ZM74.0331 26.1141C73.222 26.1141 72.6094 26.0169 72.1954 25.8226C71.7814 25.6282 71.5025 25.3156 71.3589 24.8847C71.2153 24.4538 71.1435 23.8835 71.1435 23.1737V9.06775H69.4071V7.14132H71.1435V3.69404H73.7416V7.14132H75.7948V9.06775H73.7416V22.9456C73.7416 23.2667 73.7838 23.5075 73.8683 23.668C73.9528 23.8201 74.1429 23.9215 74.4387 23.9722C74.7344 24.0229 75.1949 24.0482 75.8201 24.0482V26.1141H74.0331ZM78.2535 26V3.45324H80.8516V9.00438C81.0206 8.41293 81.3755 7.88908 81.9162 7.43282C82.4654 6.97656 83.1202 6.74843 83.8807 6.74843C84.8354 6.74843 85.5832 7.0864 86.1239 7.76234C86.6647 8.43828 86.9351 9.46486 86.9351 10.8421V26H84.3369V11.0575C84.3369 10.2802 84.1933 9.74369 83.906 9.44796C83.6272 9.14379 83.2512 8.9917 82.778 8.9917C82.4316 8.9917 82.1105 9.0762 81.8148 9.24518C81.5191 9.40572 81.2825 9.66342 81.1051 10.0183C80.9361 10.3647 80.8516 10.8167 80.8516 11.3744V26H78.2535ZM94.5267 26.2281C93.6311 26.2281 92.9044 26.076 92.3468 25.7719C91.7891 25.4592 91.3582 25.0199 91.0541 24.4538C90.7583 23.8792 90.5556 23.1949 90.4457 22.4006C90.3359 21.598 90.281 20.7023 90.281 19.7138V12.984C90.281 11.7926 90.395 10.728 90.6231 9.79016C90.8513 8.85229 91.2695 8.11298 91.8779 7.57223C92.4947 7.03148 93.3776 6.76111 94.5267 6.76111C95.3885 6.76111 96.094 6.91742 96.6432 7.23004C97.1924 7.53421 97.6191 7.96935 97.9233 8.53545C98.2275 9.0931 98.4345 9.75213 98.5443 10.5126C98.6626 11.2645 98.7217 12.0883 98.7217 12.984V19.7138C98.7217 20.6854 98.671 21.5684 98.5696 22.3626C98.4683 23.1568 98.2697 23.8454 97.974 24.4284C97.6867 25.003 97.2642 25.4466 96.7066 25.7592C96.1574 26.0718 95.4308 26.2281 94.5267 26.2281ZM94.5267 24.0609C94.9829 24.0609 95.3209 23.9088 95.5406 23.6046C95.7687 23.3005 95.9208 22.878 95.9969 22.3373C96.0729 21.7881 96.1109 21.1544 96.1109 20.4362V12.4643C96.1109 11.7546 96.0729 11.1378 95.9969 10.614C95.9208 10.0817 95.7687 9.66764 95.5406 9.37192C95.3125 9.0762 94.9745 8.92834 94.5267 8.92834C94.0535 8.92834 93.6987 9.0762 93.4621 9.37192C93.2255 9.66764 93.0692 10.0817 92.9932 10.614C92.9256 11.1378 92.8918 11.7546 92.8918 12.4643V20.4362C92.8918 21.1544 92.9256 21.7881 92.9932 22.3373C93.0692 22.878 93.2255 23.3005 93.4621 23.6046C93.6987 23.9088 94.0535 24.0609 94.5267 24.0609ZM102.156 26V6.98924H104.767V9.10577C104.987 8.37069 105.367 7.79614 105.908 7.38213C106.457 6.96811 107.154 6.76111 107.999 6.76111C108.016 6.76111 108.024 6.87517 108.024 7.1033C108.033 7.32298 108.037 7.57646 108.037 7.86373C108.037 8.15101 108.037 8.40871 108.037 8.63684C108.037 8.85652 108.037 8.96636 108.037 8.96636C107.631 8.96636 107.226 9.01705 106.82 9.11844C106.415 9.21138 106.035 9.37614 105.68 9.61272C105.325 9.84085 105.021 10.1535 104.767 10.5506V26H102.156ZM113.119 26.1648C111.97 26.1648 111.142 25.7212 110.635 24.834C110.128 23.9384 109.87 22.7006 109.862 21.1206V19.2702C109.862 18.4337 110.006 17.7409 110.293 17.1917C110.58 16.634 110.986 16.1693 111.51 15.7976C112.033 15.4258 112.65 15.092 113.36 14.7963C114.07 14.4922 114.847 14.1711 115.692 13.8331V12.3629C115.692 11.5518 115.667 10.897 115.616 10.3985C115.565 9.89155 115.434 9.51978 115.223 9.2832C115.02 9.04662 114.691 8.92834 114.235 8.92834C113.787 8.92834 113.449 9.04662 113.221 9.2832C113.001 9.51978 112.857 9.89155 112.79 10.3985C112.722 10.9055 112.688 11.5645 112.688 12.3756V13.0347H110.103V12.4897C110.103 11.6786 110.154 10.9266 110.255 10.2337C110.356 9.53245 110.551 8.92411 110.838 8.40871C111.125 7.8933 111.543 7.49197 112.093 7.20469C112.65 6.90897 113.381 6.76111 114.285 6.76111C115.147 6.76111 115.84 6.90052 116.364 7.17934C116.896 7.44972 117.302 7.85106 117.58 8.38336C117.868 8.91566 118.062 9.5747 118.163 10.3605C118.265 11.1378 118.315 12.0377 118.315 13.06V26H115.705V24.3524C115.629 24.6059 115.481 24.8763 115.261 25.1635C115.041 25.4424 114.754 25.6789 114.399 25.8733C114.044 26.0676 113.618 26.1648 113.119 26.1648ZM113.854 24.0609C114.311 24.0609 114.703 23.9173 115.033 23.63C115.362 23.3343 115.582 23.0428 115.692 22.7555V15.5187C115.041 15.806 114.505 16.0679 114.082 16.3045C113.668 16.5326 113.343 16.7734 113.107 17.0269C112.878 17.2804 112.718 17.5846 112.625 17.9394C112.532 18.2943 112.486 18.7421 112.486 19.2829V21.0445C112.486 22.1176 112.578 22.8907 112.764 23.3638C112.95 23.8285 113.314 24.0609 113.854 24.0609Z" fill="#0A0A0A" style="fill:#0A0A0A;fill:color(display-p3 0.0392 0.0392 0.0392);fill-opacity:1;"/>
<defs>
<linearGradient id="paint0_linear_30828_108" x1="14.5" y1="-0.722895" x2="14.5" y2="24.5" gradientUnits="userSpaceOnUse">
<stop stop-color="#75D8FC" style="stop-color:#75D8FC;stop-color:color(display-p3 0.4588 0.8471 0.9882);stop-opacity:1;"/>
<stop offset="1" stop-color="#0072E5" style="stop-color:#0072E5;stop-color:color(display-p3 0.0000 0.4471 0.8980);stop-opacity:1;"/>
</linearGradient>
<linearGradient id="paint1_linear_30828_108" x1="14.4996" y1="-0.722919" x2="14.4996" y2="24.5" gradientUnits="userSpaceOnUse">
<stop stop-color="#75D8FC" style="stop-color:#75D8FC;stop-color:color(display-p3 0.4588 0.8471 0.9882);stop-opacity:1;"/>
<stop offset="1" stop-color="#0072E5" style="stop-color:#0072E5;stop-color:color(display-p3 0.0000 0.4471 0.8980);stop-opacity:1;"/>
</linearGradient>
<clipPath id="clip0_30828_108">
<rect width="29" height="29" fill="white" style="fill:white;fill-opacity:1;"/>
</clipPath>
</defs>
</svg>
