<svg width="106" height="45" viewBox="0 0 106 45" fill="none" xmlns="http://www.w3.org/2000/svg">
<rect y="4.5" width="36" height="36" rx="4" fill="#FF5D30" style="fill:#FF5D30;fill:color(display-p3 1.0000 0.3659 0.1875);fill-opacity:1;"/>
<g clip-path="url(#clip0_30828_87)">
<path d="M26.35 27.45L20.95 31.5H9.25L10.15 29.25L12.4 27.45H20.05L21.4 29.25L25 18.45L27.25 16.65H29.5L26.35 27.45ZM26.35 15.75L24.1 17.55H16.45L15.1 15.75L11.5 26.55L9.25 28.35H7L10.15 17.55L15.55 13.5H27.25L26.35 15.75ZM17.8 19.35H22.75L20.05 27.45L18.7 25.65H13.75L16.45 17.55L17.8 19.35Z" fill="white" style="fill:white;fill-opacity:1;"/>
</g>
<path d="M46.2955 34V10.7273H61.2045V14.2614H50.5114V20.5795H60.1818V24.1136H50.5114V34H46.2955ZM64.5436 34V16.5455H68.6573V34H64.5436ZM66.6118 14.0682C65.9603 14.0682 65.3997 13.8523 64.93 13.4205C64.4603 12.9811 64.2255 12.4545 64.2255 11.8409C64.2255 11.2197 64.4603 10.6932 64.93 10.2614C65.3997 9.82197 65.9603 9.60227 66.6118 9.60227C67.2709 9.60227 67.8315 9.82197 68.2936 10.2614C68.7633 10.6932 68.9982 11.2197 68.9982 11.8409C68.9982 12.4545 68.7633 12.9811 68.2936 13.4205C67.8315 13.8523 67.2709 14.0682 66.6118 14.0682ZM72.5674 34V16.5455H76.681V34H72.5674ZM74.6356 14.0682C73.9841 14.0682 73.4234 13.8523 72.9538 13.4205C72.4841 12.9811 72.2492 12.4545 72.2492 11.8409C72.2492 11.2197 72.4841 10.6932 72.9538 10.2614C73.4234 9.82197 73.9841 9.60227 74.6356 9.60227C75.2947 9.60227 75.8553 9.82197 76.3174 10.2614C76.7871 10.6932 77.0219 11.2197 77.0219 11.8409C77.0219 12.4545 76.7871 12.9811 76.3174 13.4205C75.8553 13.8523 75.2947 14.0682 74.6356 14.0682ZM84.7048 10.7273V34H80.5911V10.7273H84.7048ZM96.2285 34.3409C94.524 34.3409 93.0467 33.9659 91.7967 33.2159C90.5467 32.4659 89.577 31.4167 88.8876 30.0682C88.2058 28.7197 87.8649 27.1439 87.8649 25.3409C87.8649 23.5379 88.2058 21.9583 88.8876 20.6023C89.577 19.2462 90.5467 18.1932 91.7967 17.4432C93.0467 16.6932 94.524 16.3182 96.2285 16.3182C97.9331 16.3182 99.4103 16.6932 100.66 17.4432C101.91 18.1932 102.876 19.2462 103.558 20.6023C104.247 21.9583 104.592 23.5379 104.592 25.3409C104.592 27.1439 104.247 28.7197 103.558 30.0682C102.876 31.4167 101.91 32.4659 100.66 33.2159C99.4103 33.9659 97.9331 34.3409 96.2285 34.3409ZM96.2513 31.0455C97.1755 31.0455 97.9482 30.7917 98.5694 30.2841C99.1906 29.7689 99.6528 29.0795 99.9558 28.2159C100.266 27.3523 100.422 26.3902 100.422 25.3295C100.422 24.2614 100.266 23.2955 99.9558 22.4318C99.6528 21.5606 99.1906 20.8674 98.5694 20.3523C97.9482 19.8371 97.1755 19.5795 96.2513 19.5795C95.3043 19.5795 94.5164 19.8371 93.8876 20.3523C93.2664 20.8674 92.8005 21.5606 92.4899 22.4318C92.1869 23.2955 92.0353 24.2614 92.0353 25.3295C92.0353 26.3902 92.1869 27.3523 92.4899 28.2159C92.8005 29.0795 93.2664 29.7689 93.8876 30.2841C94.5164 30.7917 95.3043 31.0455 96.2513 31.0455Z" fill="#111111" style="fill:#111111;fill:color(display-p3 0.0667 0.0667 0.0667);fill-opacity:1;"/>
<defs>
<clipPath id="clip0_30828_87">
<rect width="22.5" height="18" fill="white" style="fill:white;fill-opacity:1;" transform="translate(7 13.5)"/>
</clipPath>
</defs>
</svg>
