<svg width="158" height="37" viewBox="0 0 158 37" fill="none" xmlns="http://www.w3.org/2000/svg">
<rect width="158" height="37" rx="18.5" fill="white" style="fill:white;fill-opacity:1;"/>
<path d="M23 14.4165V22.5832M18.9167 18.4998H27.0833" stroke="#46484D" style="stroke:#46484D;stroke:color(display-p3 0.2745 0.2824 0.3020);stroke-opacity:1;" stroke-width="1.5" stroke-linecap="round" stroke-linejoin="round"/>
<path opacity="0.72" d="M47.1006 16.6378C47.0627 16.3016 46.9065 16.0412 46.6318 15.8565C46.3572 15.6695 46.0116 15.576 45.5949 15.576C45.2966 15.576 45.0386 15.6233 44.8208 15.718C44.603 15.8104 44.4337 15.9382 44.3129 16.1016C44.1946 16.2625 44.1354 16.446 44.1354 16.652C44.1354 16.8248 44.1756 16.974 44.2561 17.0994C44.339 17.2249 44.4467 17.3303 44.5793 17.4155C44.7142 17.4983 44.8586 17.5682 45.0125 17.625C45.1664 17.6795 45.3144 17.7244 45.4564 17.7599L46.1666 17.9446C46.3986 18.0014 46.6366 18.0784 46.8804 18.1754C47.1243 18.2725 47.3503 18.4003 47.5587 18.5589C47.767 18.7176 47.9351 18.9141 48.0629 19.1484C48.1932 19.3828 48.2583 19.6634 48.2583 19.9901C48.2583 20.402 48.1517 20.7678 47.9387 21.0874C47.728 21.407 47.4214 21.6591 47.0189 21.8438C46.6188 22.0284 46.1347 22.1207 45.5665 22.1207C45.022 22.1207 44.5509 22.0343 44.1531 21.8615C43.7554 21.6887 43.4441 21.4437 43.2192 21.1264C42.9943 20.8068 42.87 20.428 42.8463 19.9901H43.9472C43.9685 20.2528 44.0537 20.4718 44.2029 20.647C44.3544 20.8198 44.5473 20.9489 44.7817 21.0341C45.0184 21.117 45.2777 21.1584 45.5594 21.1584C45.8695 21.1584 46.1453 21.1098 46.3868 21.0128C46.6307 20.9134 46.8224 20.776 46.9621 20.6009C47.1018 20.4233 47.1716 20.2161 47.1716 19.9794C47.1716 19.764 47.1101 19.5876 46.9869 19.4503C46.8662 19.313 46.7017 19.1993 46.4933 19.1094C46.2874 19.0194 46.0542 18.9401 45.7938 18.8714L44.9344 18.6371C44.352 18.4785 43.8904 18.2453 43.5494 17.9375C43.2109 17.6297 43.0416 17.2225 43.0416 16.7159C43.0416 16.2969 43.1553 15.9311 43.3825 15.6186C43.6098 15.3061 43.9176 15.0634 44.3058 14.8906C44.6941 14.7154 45.1321 14.6278 45.6198 14.6278C46.1122 14.6278 46.5466 14.7143 46.923 14.8871C47.3018 15.0599 47.6001 15.2978 47.8179 15.6009C48.0357 15.9015 48.1494 16.2472 48.1588 16.6378H47.1006ZM51.8351 22.1101C51.2977 22.1101 50.8349 21.9953 50.4466 21.7656C50.0608 21.5336 49.7625 21.2081 49.5518 20.7891C49.3434 20.3677 49.2393 19.8741 49.2393 19.3082C49.2393 18.7495 49.3434 18.2571 49.5518 17.831C49.7625 17.4048 50.056 17.0722 50.4324 16.8331C50.8112 16.594 51.2539 16.4744 51.7606 16.4744C52.0683 16.4744 52.3666 16.5253 52.6555 16.6271C52.9443 16.7289 53.2035 16.8887 53.4331 17.1065C53.6628 17.3243 53.8439 17.6072 53.9765 17.9553C54.109 18.3009 54.1753 18.7211 54.1753 19.2159V19.5923H49.8394V18.7969H53.1349C53.1349 18.5175 53.078 18.2701 52.9644 18.0547C52.8508 17.8369 52.691 17.6652 52.485 17.5398C52.2814 17.4143 52.0423 17.3516 51.7677 17.3516C51.4694 17.3516 51.209 17.425 50.9864 17.5717C50.7662 17.7161 50.5958 17.9055 50.4751 18.1399C50.3567 18.3719 50.2975 18.6241 50.2975 18.8963V19.5178C50.2975 19.8823 50.3614 20.1925 50.4893 20.4482C50.6195 20.7038 50.8006 20.8991 51.0326 21.0341C51.2646 21.1667 51.5357 21.233 51.8458 21.233C52.047 21.233 52.2305 21.2045 52.3962 21.1477C52.5619 21.0885 52.7052 21.0009 52.8259 20.8849C52.9466 20.7689 53.039 20.6257 53.1029 20.4553L54.1079 20.6364C54.0274 20.9323 53.883 21.1915 53.6746 21.4141C53.4687 21.6342 53.2094 21.8059 52.8969 21.929C52.5868 22.0497 52.2329 22.1101 51.8351 22.1101ZM56.9408 22.1207C56.5951 22.1207 56.2826 22.0568 56.0033 21.929C55.7239 21.7988 55.5026 21.6106 55.3392 21.3643C55.1782 21.1181 55.0977 20.8163 55.0977 20.4588C55.0977 20.151 55.1569 19.8977 55.2753 19.6989C55.3937 19.5 55.5535 19.3426 55.7547 19.2266C55.9559 19.1106 56.1808 19.023 56.4294 18.9638C56.678 18.9046 56.9313 18.8596 57.1894 18.8288C57.5161 18.791 57.7812 18.7602 57.9848 18.7365C58.1884 18.7105 58.3364 18.669 58.4287 18.6122C58.521 18.5554 58.5672 18.4631 58.5672 18.3352V18.3104C58.5672 18.0002 58.4796 17.7599 58.3044 17.5895C58.1316 17.419 57.8736 17.3338 57.5303 17.3338C57.1728 17.3338 56.8911 17.4131 56.6851 17.5717C56.4815 17.728 56.3406 17.902 56.2625 18.0938L55.2646 17.8665C55.383 17.535 55.5558 17.2675 55.7831 17.0639C56.0128 16.858 56.2767 16.7088 56.575 16.6165C56.8733 16.5218 57.187 16.4744 57.5161 16.4744C57.7339 16.4744 57.9647 16.5005 58.2085 16.5526C58.4548 16.6023 58.6844 16.6946 58.8975 16.8295C59.1129 16.9645 59.2893 17.1574 59.4266 17.4084C59.5639 17.657 59.6325 17.9801 59.6325 18.3778V22H58.5956V21.2543H58.553C58.4843 21.3916 58.3814 21.5265 58.2441 21.6591C58.1067 21.7917 57.9304 21.9018 57.7149 21.9893C57.4995 22.0769 57.2414 22.1207 56.9408 22.1207ZM57.1716 21.2685C57.4652 21.2685 57.7161 21.2105 57.9244 21.0945C58.1352 20.9785 58.295 20.8269 58.4039 20.6399C58.5151 20.4505 58.5708 20.2481 58.5708 20.0327V19.3295C58.5329 19.3674 58.4595 19.4029 58.3506 19.4361C58.2441 19.4669 58.1221 19.4941 57.9848 19.5178C57.8475 19.5391 57.7137 19.5592 57.5835 19.5781C57.4533 19.5947 57.3444 19.6089 57.2568 19.6207C57.0509 19.6468 56.8627 19.6906 56.6922 19.7521C56.5241 19.8137 56.3892 19.9025 56.2874 20.0185C56.1879 20.1321 56.1382 20.2836 56.1382 20.473C56.1382 20.7358 56.2353 20.9347 56.4294 21.0696C56.6235 21.2022 56.8709 21.2685 57.1716 21.2685ZM61.0468 22V16.5455H62.0731V17.4119H62.1299C62.2293 17.1184 62.4045 16.8875 62.6555 16.7195C62.9088 16.549 63.1952 16.4638 63.5148 16.4638C63.5811 16.4638 63.6592 16.4661 63.7492 16.4709C63.8415 16.4756 63.9137 16.4815 63.9658 16.4886V17.5043C63.9232 17.4924 63.8474 17.4794 63.7385 17.4652C63.6296 17.4486 63.5207 17.4403 63.4118 17.4403C63.1609 17.4403 62.9372 17.4936 62.7407 17.6001C62.5465 17.7043 62.3927 17.8499 62.279 18.0369C62.1654 18.2216 62.1086 18.4323 62.1086 18.669V22H61.0468ZM66.9869 22.1101C66.459 22.1101 66.0045 21.9905 65.6233 21.7514C65.2445 21.5099 64.9533 21.1773 64.7497 20.7536C64.5461 20.3298 64.4443 19.8445 64.4443 19.2976C64.4443 18.7436 64.5485 18.2547 64.7568 17.831C64.9652 17.4048 65.2587 17.0722 65.6375 16.8331C66.0163 16.594 66.4626 16.4744 66.9763 16.4744C67.3906 16.4744 67.7599 16.5514 68.0843 16.7053C68.4086 16.8568 68.6702 17.0698 68.8691 17.3445C69.0703 17.6191 69.1898 17.9399 69.2277 18.3068H68.1943C68.1375 18.0511 68.0073 17.831 67.8037 17.6463C67.6025 17.4616 67.3326 17.3693 66.9941 17.3693C66.6981 17.3693 66.4389 17.4474 66.2164 17.6037C65.9962 17.7576 65.8245 17.9777 65.7014 18.2642C65.5783 18.5483 65.5168 18.8845 65.5168 19.2727C65.5168 19.6705 65.5771 20.0137 65.6979 20.3026C65.8186 20.5914 65.9891 20.8151 66.2093 20.9737C66.4318 21.1323 66.6934 21.2116 66.9941 21.2116C67.1953 21.2116 67.3776 21.175 67.5409 21.1016C67.7066 21.0258 67.8451 20.9181 67.9564 20.7784C68.07 20.6387 68.1494 20.4706 68.1943 20.2741H69.2277C69.1898 20.6269 69.075 20.9418 68.8833 21.2188C68.6915 21.4957 68.4346 21.7135 68.1127 21.8722C67.7931 22.0308 67.4178 22.1101 66.9869 22.1101ZM71.425 18.7614V22H70.3632V14.7273H71.4108V17.4332H71.4782C71.6061 17.1397 71.8014 16.9065 72.0642 16.7337C72.327 16.5608 72.6702 16.4744 73.094 16.4744C73.4681 16.4744 73.7948 16.5514 74.0741 16.7053C74.3559 16.8591 74.5737 17.0888 74.7275 17.3942C74.8838 17.6972 74.9619 18.076 74.9619 18.5305V22H73.9001V18.6584C73.9001 18.2583 73.7971 17.9482 73.5912 17.728C73.3852 17.5054 73.0988 17.3942 72.7318 17.3942C72.4809 17.3942 72.2559 17.4474 72.0571 17.554C71.8606 17.6605 71.7055 17.8168 71.5919 18.0227C71.4806 18.2263 71.425 18.4725 71.425 18.7614Z" fill="#46484D" style="fill:#46484D;fill:color(display-p3 0.2745 0.2824 0.3020);fill-opacity:1;"/>
<g opacity="0.8" clip-path="url(#clip0_30889_1923)">
<path d="M136 20.8075C136.635 20.8075 137.178 20.5815 137.63 20.1298C138.082 19.6781 138.307 19.1346 138.307 18.5V14.8078C138.307 14.1731 138.082 13.6299 137.63 13.1779C137.178 12.7261 136.635 12.5 136 12.5C135.365 12.5 134.822 12.7261 134.37 13.1779C133.918 13.6298 133.692 14.1731 133.692 14.8078V18.5C133.692 19.1346 133.918 19.6781 134.37 20.1298C134.822 20.5815 135.365 20.8075 136 20.8075Z" fill="#46484D" style="fill:#46484D;fill:color(display-p3 0.2745 0.2824 0.3020);fill-opacity:1;"/>
<path d="M140.017 17.2523C139.926 17.1609 139.817 17.1152 139.692 17.1152C139.567 17.1152 139.459 17.1609 139.368 17.2523C139.276 17.3436 139.231 17.4518 139.231 17.5767V18.4999C139.231 19.3893 138.915 20.1501 138.282 20.7823C137.65 21.4145 136.889 21.7306 136 21.7306C135.11 21.7306 134.35 21.4145 133.717 20.7823C133.085 20.1503 132.769 19.3893 132.769 18.4999V17.5767C132.769 17.4518 132.724 17.3436 132.632 17.2523C132.541 17.1609 132.433 17.1152 132.308 17.1152C132.183 17.1152 132.074 17.1609 131.983 17.2523C131.892 17.3436 131.846 17.4518 131.846 17.5767V18.4999C131.846 19.5624 132.201 20.4867 132.91 21.2727C133.619 22.0587 134.495 22.5093 135.538 22.6246V23.5767H133.692C133.567 23.5767 133.459 23.6224 133.368 23.7138C133.276 23.8051 133.231 23.9133 133.231 24.0383C133.231 24.1631 133.276 24.2715 133.368 24.3628C133.459 24.4541 133.567 24.4999 133.692 24.4999H138.307C138.432 24.4999 138.541 24.4541 138.632 24.3628C138.723 24.2715 138.769 24.1631 138.769 24.0383C138.769 23.9133 138.723 23.8051 138.632 23.7138C138.541 23.6224 138.432 23.5767 138.307 23.5767H136.462V22.6246C137.505 22.5093 138.381 22.0587 139.09 21.2727C139.799 20.4867 140.154 19.5624 140.154 18.4999V17.5767C140.154 17.4518 140.108 17.3437 140.017 17.2523Z" fill="#46484D" style="fill:#46484D;fill:color(display-p3 0.2745 0.2824 0.3020);fill-opacity:1;"/>
</g>
<defs>
<clipPath id="clip0_30889_1923">
<rect width="12" height="12" fill="white" style="fill:white;fill-opacity:1;" transform="translate(130 12.5)"/>
</clipPath>
</defs>
</svg>
