<svg width="157" height="95" viewBox="0 0 157 95" fill="none" xmlns="http://www.w3.org/2000/svg">
<rect width="157" height="24" rx="4" fill="white" style="fill:white;fill-opacity:1;"/>
<rect x="12" y="9" width="120" height="6" rx="2" fill="#46484D" fill-opacity="0.16" style="fill:#46484D;fill:color(display-p3 0.2745 0.2824 0.3020);fill-opacity:0.16;"/>
<rect x="139" y="9" width="6" height="6" rx="2" fill="#46484D" fill-opacity="0.16" style="fill:#46484D;fill:color(display-p3 0.2745 0.2824 0.3020);fill-opacity:0.16;"/>
<rect y="33" width="157" height="62" rx="4" fill="white" style="fill:white;fill-opacity:1;"/>
<rect x="12" y="42" width="133" height="6" rx="2" fill="#46484D" fill-opacity="0.16" style="fill:#46484D;fill:color(display-p3 0.2745 0.2824 0.3020);fill-opacity:0.16;"/>
<rect x="12" y="80" width="133" height="6" rx="2" fill="#46484D" fill-opacity="0.16" style="fill:#46484D;fill:color(display-p3 0.2745 0.2824 0.3020);fill-opacity:0.16;"/>
<rect x="4" y="57" width="149" height="14" rx="2" fill="#46484D" fill-opacity="0.04" style="fill:#46484D;fill:color(display-p3 0.2745 0.2824 0.3020);fill-opacity:0.04;"/>
<rect x="12" y="61" width="120" height="6" rx="2" fill="#46484D" fill-opacity="0.16" style="fill:#46484D;fill:color(display-p3 0.2745 0.2824 0.3020);fill-opacity:0.16;"/>
<rect x="139" y="61" width="6" height="6" rx="2" fill="#46484D" fill-opacity="0.16" style="fill:#46484D;fill:color(display-p3 0.2745 0.2824 0.3020);fill-opacity:0.16;"/>
<g clip-path="url(#clip0_32727_1639)">
<path d="M126.022 73.9694L120.052 75.833C120 75.8491 119.954 75.8774 119.916 75.9155C119.877 75.9535 119.849 76.0003 119.833 76.0517L117.97 82.0216C117.922 82.1697 117.829 82.2993 117.704 82.3925C117.58 82.4857 117.429 82.538 117.273 82.5421C117.118 82.5462 116.965 82.502 116.835 82.4155C116.706 82.329 116.606 82.2044 116.551 82.0591L111.5 68.4638C111.452 68.3293 111.443 68.1839 111.474 68.0445C111.505 67.9051 111.576 67.7775 111.677 67.6765C111.778 67.5755 111.905 67.5052 112.045 67.4739C112.184 67.4426 112.329 67.4515 112.464 67.4996L126.059 72.5504C126.205 72.6061 126.329 72.7056 126.416 72.835C126.502 72.9645 126.546 73.1176 126.542 73.2732C126.538 73.4288 126.486 73.5794 126.393 73.704C126.299 73.8287 126.17 73.9215 126.022 73.9694Z" fill="#1167F4" style="fill:#1167F4;fill:color(display-p3 0.0667 0.4039 0.9569);fill-opacity:1;"/>
</g>
<defs>
<clipPath id="clip0_32727_1639">
<rect width="16" height="16" fill="white" style="fill:white;fill-opacity:1;" transform="translate(111 67)"/>
</clipPath>
</defs>
</svg>
