<svg width="142" height="133" viewBox="0 0 142 133" fill="none" xmlns="http://www.w3.org/2000/svg">
<g clip-path="url(#clip0_30891_2041)">
<rect width="142" height="133" rx="8" fill="white" style="fill:white;fill-opacity:1;"/>
<path d="M0.304943 129.021C0.304943 129.021 0.572781 108.242 9.79529 101.757C20.1377 94.4855 29.9434 108.792 42.0061 105.006C61.0019 99.0436 40.9161 63.6733 60.0001 57.9997C72.1923 54.375 79.0001 42.4998 96.4999 42.4998C121.937 42.4998 93.0001 9.49981 127.425 -2.40969C136.582 -5.57738 150.998 5.32757 150.998 5.32757" stroke="#46484D" stroke-opacity="0.12" style="stroke:#46484D;stroke:color(display-p3 0.2745 0.2824 0.3020);stroke-opacity:0.12;"/>
<line x1="135" y1="12.5" x2="142" y2="12.5" stroke="#46484D" stroke-opacity="0.06" style="stroke:#46484D;stroke:color(display-p3 0.2745 0.2824 0.3020);stroke-opacity:0.06;"/>
<line x1="135" y1="21.5" x2="142" y2="21.5" stroke="#46484D" stroke-opacity="0.06" style="stroke:#46484D;stroke:color(display-p3 0.2745 0.2824 0.3020);stroke-opacity:0.06;"/>
<line x1="132" y1="30.5" x2="142" y2="30.5" stroke="#46484D" stroke-opacity="0.16" style="stroke:#46484D;stroke:color(display-p3 0.2745 0.2824 0.3020);stroke-opacity:0.16;"/>
<line x1="135" y1="39.5" x2="142" y2="39.5" stroke="#46484D" stroke-opacity="0.06" style="stroke:#46484D;stroke:color(display-p3 0.2745 0.2824 0.3020);stroke-opacity:0.06;"/>
<line x1="135" y1="48.5" x2="142" y2="48.5" stroke="#46484D" stroke-opacity="0.06" style="stroke:#46484D;stroke:color(display-p3 0.2745 0.2824 0.3020);stroke-opacity:0.06;"/>
<line x1="135" y1="57.5" x2="142" y2="57.5" stroke="#46484D" stroke-opacity="0.06" style="stroke:#46484D;stroke:color(display-p3 0.2745 0.2824 0.3020);stroke-opacity:0.06;"/>
<line x1="132" y1="66.5" x2="142" y2="66.5" stroke="#46484D" stroke-opacity="0.16" style="stroke:#46484D;stroke:color(display-p3 0.2745 0.2824 0.3020);stroke-opacity:0.16;"/>
<line x1="135" y1="75.5" x2="142" y2="75.5" stroke="#46484D" stroke-opacity="0.06" style="stroke:#46484D;stroke:color(display-p3 0.2745 0.2824 0.3020);stroke-opacity:0.06;"/>
<line x1="135" y1="84.5" x2="142" y2="84.5" stroke="#46484D" stroke-opacity="0.06" style="stroke:#46484D;stroke:color(display-p3 0.2745 0.2824 0.3020);stroke-opacity:0.06;"/>
<line x1="135" y1="93.5" x2="142" y2="93.5" stroke="#46484D" stroke-opacity="0.06" style="stroke:#46484D;stroke:color(display-p3 0.2745 0.2824 0.3020);stroke-opacity:0.06;"/>
<line x1="132" y1="102.5" x2="142" y2="102.5" stroke="#46484D" stroke-opacity="0.16" style="stroke:#46484D;stroke:color(display-p3 0.2745 0.2824 0.3020);stroke-opacity:0.16;"/>
<line x1="135" y1="111.5" x2="142" y2="111.5" stroke="#46484D" stroke-opacity="0.06" style="stroke:#46484D;stroke:color(display-p3 0.2745 0.2824 0.3020);stroke-opacity:0.06;"/>
<line x1="135" y1="120.5" x2="142" y2="120.5" stroke="#46484D" stroke-opacity="0.06" style="stroke:#46484D;stroke:color(display-p3 0.2745 0.2824 0.3020);stroke-opacity:0.06;"/>
<path d="M118.843 105.08C118.487 105.08 118.167 105.011 117.883 104.875C117.601 104.737 117.376 104.547 117.207 104.307C117.038 104.066 116.949 103.792 116.937 103.483H117.789C117.81 103.733 117.921 103.938 118.122 104.099C118.323 104.26 118.563 104.341 118.843 104.341C119.067 104.341 119.265 104.29 119.437 104.188C119.611 104.083 119.748 103.94 119.846 103.759C119.947 103.577 119.997 103.369 119.997 103.136C119.997 102.9 119.946 102.688 119.843 102.503C119.741 102.317 119.6 102.171 119.42 102.065C119.242 101.959 119.038 101.905 118.806 101.903C118.63 101.903 118.453 101.934 118.275 101.994C118.097 102.055 117.953 102.134 117.843 102.233L117.039 102.114L117.366 99.1818H120.565V99.9347H118.096L117.912 101.562H117.946C118.059 101.453 118.21 101.361 118.397 101.287C118.587 101.213 118.789 101.176 119.005 101.176C119.359 101.176 119.675 101.26 119.951 101.429C120.23 101.598 120.449 101.828 120.608 102.119C120.769 102.409 120.848 102.742 120.846 103.119C120.848 103.496 120.763 103.832 120.591 104.128C120.42 104.423 120.183 104.656 119.88 104.827C119.579 104.995 119.234 105.08 118.843 105.08ZM121.963 105V99.1818H122.841V101.96H122.912L125.353 99.1818H126.458L124.111 101.801L126.466 105H125.409L123.529 102.401L122.841 103.19V105H121.963Z" fill="#46484D" fill-opacity="0.4" style="fill:#46484D;fill:color(display-p3 0.2745 0.2824 0.3020);fill-opacity:0.4;"/>
<path d="M118.892 70.0795C118.632 70.0758 118.377 70.0284 118.125 69.9375C117.875 69.8466 117.647 69.6951 117.443 69.483C117.238 69.2708 117.074 68.9858 116.951 68.6278C116.83 68.2699 116.77 67.8229 116.77 67.2869C116.77 66.7794 116.82 66.3286 116.92 65.9347C117.022 65.5407 117.169 65.2083 117.36 64.9375C117.552 64.6648 117.783 64.4574 118.054 64.3153C118.324 64.1733 118.628 64.1023 118.966 64.1023C119.312 64.1023 119.62 64.1705 119.889 64.3068C120.158 64.4432 120.376 64.6316 120.542 64.8722C120.711 65.1127 120.818 65.3864 120.863 65.6932H119.997C119.938 65.4508 119.822 65.2528 119.647 65.0994C119.473 64.946 119.246 64.8693 118.966 64.8693C118.539 64.8693 118.207 65.0549 117.968 65.4261C117.732 65.7973 117.612 66.3134 117.61 66.9744H117.653C117.753 66.8097 117.877 66.6695 118.022 66.554C118.17 66.4366 118.335 66.3466 118.517 66.2841C118.7 66.2197 118.894 66.1875 119.096 66.1875C119.433 66.1875 119.738 66.2699 120.011 66.4347C120.286 66.5975 120.504 66.8229 120.667 67.1108C120.83 67.3987 120.912 67.7282 120.912 68.0994C120.912 68.4706 120.827 68.8068 120.659 69.108C120.492 69.4091 120.257 69.6477 119.954 69.8239C119.651 69.9981 119.297 70.0833 118.892 70.0795ZM118.889 69.3409C119.112 69.3409 119.312 69.286 119.488 69.1761C119.664 69.0663 119.804 68.9186 119.906 68.733C120.008 68.5473 120.059 68.34 120.059 68.1108C120.059 67.8873 120.009 67.6837 119.909 67.5C119.81 67.3163 119.674 67.1705 119.5 67.0625C119.327 66.9545 119.13 66.9006 118.909 66.9006C118.74 66.9006 118.584 66.9328 118.44 66.9972C118.298 67.0616 118.173 67.1506 118.065 67.2642C117.957 67.3778 117.872 67.5085 117.809 67.6562C117.749 67.8021 117.718 67.9564 117.718 68.1193C117.718 68.3371 117.769 68.5388 117.869 68.7244C117.971 68.91 118.11 69.0597 118.287 69.1733C118.465 69.285 118.665 69.3409 118.889 69.3409ZM122.026 70V64.1818H122.904V66.9602H122.975L125.415 64.1818H126.52L124.174 66.8011L126.529 70H125.472L123.591 67.4006L122.904 68.1903V70H122.026Z" fill="#46484D" fill-opacity="0.4" style="fill:#46484D;fill:color(display-p3 0.2745 0.2824 0.3020);fill-opacity:0.4;"/>
<path d="M118.842 34.0795C118.435 34.0795 118.075 34.0095 117.762 33.8693C117.452 33.7292 117.208 33.536 117.032 33.2898C116.856 33.0436 116.769 32.7633 116.771 32.4489C116.769 32.2027 116.819 31.9763 116.922 31.7699C117.026 31.5616 117.167 31.3883 117.345 31.25C117.523 31.1098 117.722 31.0208 117.941 30.983V30.9489C117.652 30.8788 117.42 30.7235 117.245 30.483C117.071 30.2424 116.985 29.9659 116.987 29.6534C116.985 29.3561 117.064 29.0909 117.223 28.858C117.384 28.6231 117.604 28.4384 117.885 28.304C118.165 28.1695 118.484 28.1023 118.842 28.1023C119.196 28.1023 119.512 28.1705 119.791 28.3068C120.071 28.4413 120.292 28.6259 120.453 28.8608C120.614 29.0937 120.695 29.358 120.697 29.6534C120.695 29.9659 120.606 30.2424 120.43 30.483C120.254 30.7235 120.025 30.8788 119.743 30.9489V30.983C119.96 31.0208 120.156 31.1098 120.331 31.25C120.507 31.3883 120.647 31.5616 120.751 31.7699C120.857 31.9763 120.911 32.2027 120.913 32.4489C120.911 32.7633 120.822 33.0436 120.646 33.2898C120.47 33.536 120.225 33.7292 119.913 33.8693C119.602 34.0095 119.245 34.0795 118.842 34.0795ZM118.842 33.3608C119.083 33.3608 119.291 33.321 119.467 33.2415C119.643 33.16 119.779 33.0473 119.876 32.9034C119.973 32.7576 120.022 32.5871 120.024 32.392C120.022 32.1894 119.969 32.0104 119.865 31.8551C119.762 31.6998 119.623 31.5777 119.447 31.4886C119.271 31.3996 119.069 31.3551 118.842 31.3551C118.613 31.3551 118.409 31.3996 118.231 31.4886C118.053 31.5777 117.913 31.6998 117.811 31.8551C117.708 32.0104 117.658 32.1894 117.66 32.392C117.658 32.5871 117.705 32.7576 117.799 32.9034C117.896 33.0473 118.033 33.16 118.211 33.2415C118.389 33.321 118.6 33.3608 118.842 33.3608ZM118.842 30.6534C119.035 30.6534 119.207 30.6146 119.356 30.5369C119.506 30.4593 119.623 30.3513 119.708 30.2131C119.796 30.0748 119.84 29.9129 119.842 29.7273C119.84 29.5455 119.797 29.3864 119.711 29.25C119.628 29.1136 119.511 29.0085 119.362 28.9347C119.212 28.8589 119.039 28.821 118.842 28.821C118.641 28.821 118.465 28.8589 118.314 28.9347C118.164 29.0085 118.047 29.1136 117.964 29.25C117.881 29.3864 117.84 29.5455 117.842 29.7273C117.84 29.9129 117.882 30.0748 117.967 30.2131C118.052 30.3513 118.17 30.4593 118.319 30.5369C118.471 30.6146 118.645 30.6534 118.842 30.6534ZM122.01 34V28.1818H122.888V30.9602H122.959L125.4 28.1818H126.505L124.158 30.8011L126.513 34H125.456L123.576 31.4006L122.888 32.1903V34H122.01Z" fill="#46484D" fill-opacity="0.4" style="fill:#46484D;fill:color(display-p3 0.2745 0.2824 0.3020);fill-opacity:0.4;"/>
<circle cx="86" cy="44" r="4" fill="white" style="fill:white;fill-opacity:1;"/>
<circle cx="86" cy="44" r="3.5" stroke="#46484D" stroke-opacity="0.12" style="stroke:#46484D;stroke:color(display-p3 0.2745 0.2824 0.3020);stroke-opacity:0.12;"/>
</g>
<defs>
<clipPath id="clip0_30891_2041">
<rect width="142" height="133" rx="8" fill="white" style="fill:white;fill-opacity:1;"/>
</clipPath>
</defs>
</svg>
