<svg width="142" height="142" viewBox="0 0 142 142" fill="none" xmlns="http://www.w3.org/2000/svg">
<path d="M103.03 103.031C104.695 104.695 104.706 107.409 102.906 108.926C97.5372 113.449 91.2632 116.802 84.4851 118.748C76.3383 121.087 67.7306 121.316 59.4707 119.414C51.2109 117.513 43.57 113.542 37.266 107.877C32.0212 103.163 27.8449 97.4041 24.9948 90.9886C24.0393 88.8376 25.2359 86.4014 27.4604 85.6324C29.685 84.8634 32.0919 86.0555 33.085 88.1895C35.4383 93.2459 38.7938 97.7897 42.9636 101.537C48.193 106.237 54.5313 109.531 61.383 111.108C68.2348 112.686 75.3752 112.495 82.1332 110.555C87.522 109.008 92.5266 106.389 96.854 102.871C98.6802 101.386 101.366 101.366 103.03 103.031Z" fill="white" style="fill:white;fill-opacity:1;"/>
<path d="M79.7331 25.8543C80.1985 23.5471 82.4533 22.0362 84.7125 22.6963C90.8993 24.5041 96.6916 27.4952 101.762 31.5176C107.948 36.4247 112.884 42.7272 116.166 49.909C119.447 57.0908 120.982 64.9477 120.643 72.8365C120.365 79.3028 118.835 85.6397 116.152 91.5004C115.172 93.6405 112.554 94.3563 110.505 93.198C108.456 92.0397 107.756 89.4465 108.698 87.2895C110.74 82.6146 111.907 77.5914 112.127 72.4705C112.408 65.9265 111.136 59.409 108.413 53.4515C105.691 47.4939 101.597 42.2658 96.4651 38.1952C92.4495 35.0097 87.8881 32.6039 83.0174 31.0876C80.77 30.388 79.2676 28.1615 79.7331 25.8543Z" fill="white" style="fill:white;fill-opacity:1;"/>
<path d="M24.9647 71.8292C22.6117 71.8878 20.6377 70.0247 20.7795 67.6753C21.4561 56.4634 25.8949 45.758 33.444 37.3296C40.9931 28.9013 51.1467 23.3145 62.2166 21.4117C64.5363 21.0129 66.6048 22.7705 66.8047 25.1158C67.0045 27.461 65.2583 29.502 62.946 29.9413C54.0414 31.6331 45.8924 36.2066 39.7931 43.0164C33.6938 49.8262 30.0421 58.4278 29.3376 67.4642C29.1547 69.8108 27.3176 71.7705 24.9647 71.8292Z" fill="#1167F4" style="fill:#1167F4;fill:color(display-p3 0.0667 0.4039 0.9569);fill-opacity:1;"/>
<path d="M54.9044 76.0909V65.1818H55.6033V76.0909H54.9044ZM56.92 68.6719C56.8803 68.2997 56.7127 68.0099 56.4172 67.8026C56.1246 67.5952 55.7439 67.4915 55.2752 67.4915C54.9456 67.4915 54.6629 67.5412 54.4271 67.6406C54.1913 67.7401 54.0109 67.875 53.8859 68.0455C53.7609 68.2159 53.697 68.4105 53.6942 68.6293C53.6942 68.8111 53.7354 68.9687 53.8178 69.1023C53.903 69.2358 54.018 69.3494 54.1629 69.4432C54.3078 69.5341 54.4683 69.6108 54.6445 69.6733C54.8206 69.7358 54.9982 69.7884 55.1771 69.831L55.9953 70.0355C56.3249 70.1122 56.6416 70.2159 56.9456 70.3466C57.2524 70.4773 57.5266 70.642 57.768 70.8409C58.0124 71.0398 58.2055 71.2798 58.3476 71.5611C58.4896 71.8423 58.5607 72.1719 58.5607 72.5497C58.5607 73.0611 58.43 73.5114 58.1686 73.9006C57.9073 74.2869 57.5294 74.5895 57.0351 74.8082C56.5436 75.0241 55.9484 75.1321 55.2496 75.1321C54.5706 75.1321 53.9811 75.027 53.4811 74.8168C52.984 74.6065 52.5948 74.2997 52.3135 73.8963C52.0351 73.4929 51.8845 73.0014 51.8618 72.4219H53.4172C53.4399 72.7259 53.5337 72.9787 53.6984 73.1804C53.8632 73.3821 54.0777 73.5327 54.3419 73.6321C54.609 73.7315 54.9073 73.7812 55.2368 73.7812C55.5805 73.7812 55.8817 73.7301 56.1402 73.6278C56.4016 73.5227 56.6061 73.3778 56.7538 73.1932C56.9016 73.0057 56.9769 72.7869 56.9797 72.5369C56.9769 72.3097 56.9101 72.1222 56.7794 71.9744C56.6487 71.8239 56.4655 71.6989 56.2297 71.5994C55.9967 71.4972 55.724 71.4062 55.4115 71.3267L54.4186 71.071C53.6999 70.8864 53.1317 70.6065 52.7141 70.2315C52.2993 69.8537 52.0919 69.3523 52.0919 68.7273C52.0919 68.2131 52.2311 67.7628 52.5095 67.3764C52.7908 66.9901 53.1729 66.6903 53.6558 66.4773C54.1388 66.2614 54.6857 66.1534 55.2965 66.1534C55.9158 66.1534 56.4584 66.2614 56.9243 66.4773C57.393 66.6903 57.7609 66.9872 58.028 67.3679C58.295 67.7457 58.4328 68.1804 58.4413 68.6719H56.92ZM62.919 75.1193C62.3508 75.1193 61.8423 75.0128 61.3934 74.7997C60.9445 74.5838 60.588 74.2884 60.3238 73.9134C60.0624 73.5384 59.9232 73.1094 59.9062 72.6264H61.4403C61.4687 72.9844 61.6235 73.277 61.9048 73.5043C62.186 73.7287 62.5241 73.8409 62.919 73.8409C63.2286 73.8409 63.5042 73.7699 63.7457 73.6278C63.9872 73.4858 64.1775 73.2884 64.3167 73.0355C64.4559 72.7827 64.5241 72.4943 64.5212 72.1705C64.5241 71.8409 64.4545 71.5483 64.3124 71.2926C64.1704 71.0369 63.9758 70.8366 63.7286 70.6918C63.4815 70.544 63.1974 70.4702 62.8764 70.4702C62.615 70.4673 62.3579 70.5156 62.1051 70.6151C61.8522 70.7145 61.6519 70.8452 61.5042 71.0071L60.0766 70.7727L60.5326 66.2727H65.5951V67.5938H61.8408L61.5894 69.9077H61.6406C61.8025 69.7173 62.0312 69.5597 62.3266 69.4347C62.6221 69.3068 62.946 69.2429 63.2982 69.2429C63.8266 69.2429 64.2982 69.3679 64.713 69.6179C65.1278 69.8651 65.4545 70.206 65.6931 70.6406C65.9318 71.0753 66.0511 71.5724 66.0511 72.1321C66.0511 72.7088 65.9176 73.223 65.6505 73.6747C65.3863 74.1236 65.0184 74.4773 64.5468 74.7358C64.0781 74.9915 63.5355 75.1193 62.919 75.1193ZM69.0138 73.8068L68.9584 74.2756C68.9186 74.6335 68.8476 74.9972 68.7453 75.3665C68.6459 75.7386 68.5408 76.081 68.43 76.3935C68.3192 76.706 68.2297 76.9517 68.1615 77.1307H67.1217C67.1615 76.9574 67.2155 76.7216 67.2837 76.4233C67.3547 76.125 67.4229 75.7898 67.4882 75.4176C67.5536 75.0455 67.5976 74.6676 67.6203 74.2841L67.6502 73.8068H69.0138ZM73.1963 66.2727V75H71.6154V67.8111H71.5642L69.523 69.1151V67.6662L71.6921 66.2727H73.1963ZM75.4122 75V73.858L78.4421 70.8878C78.7318 70.5952 78.9733 70.3352 79.1665 70.108C79.3597 69.8807 79.5046 69.6605 79.6011 69.4474C79.6977 69.2344 79.746 69.0071 79.746 68.7656C79.746 68.4901 79.6835 68.2543 79.5585 68.0582C79.4335 67.8594 79.2617 67.706 79.0429 67.598C78.8242 67.4901 78.5756 67.4361 78.2972 67.4361C78.0102 67.4361 77.7588 67.4957 77.5429 67.6151C77.327 67.7315 77.1594 67.8977 77.0401 68.1136C76.9236 68.3295 76.8654 68.5866 76.8654 68.8849H75.3611C75.3611 68.331 75.4875 67.8494 75.7404 67.4403C75.9932 67.0312 76.3412 66.7145 76.7844 66.4901C77.2304 66.2656 77.7418 66.1534 78.3185 66.1534C78.9037 66.1534 79.4179 66.2628 79.8611 66.4815C80.3043 66.7003 80.648 67 80.8923 67.3807C81.1395 67.7614 81.2631 68.196 81.2631 68.6847C81.2631 69.0114 81.2006 69.3324 81.0756 69.6477C80.9506 69.9631 80.7304 70.3125 80.4151 70.696C80.1026 71.0795 79.6636 71.544 79.0983 72.0895L77.594 73.6193V73.679H81.3952V75H75.4122ZM85.8994 75.1193C85.3313 75.1193 84.8227 75.0128 84.3739 74.7997C83.925 74.5838 83.5685 74.2884 83.3043 73.9134C83.0429 73.5384 82.9037 73.1094 82.8867 72.6264H84.4207C84.4492 72.9844 84.604 73.277 84.8852 73.5043C85.1665 73.7287 85.5046 73.8409 85.8994 73.8409C86.2091 73.8409 86.4847 73.7699 86.7261 73.6278C86.9676 73.4858 87.158 73.2884 87.2972 73.0355C87.4364 72.7827 87.5046 72.4943 87.5017 72.1705C87.5046 71.8409 87.435 71.5483 87.2929 71.2926C87.1509 71.0369 86.9563 70.8366 86.7091 70.6918C86.4619 70.544 86.1779 70.4702 85.8568 70.4702C85.5955 70.4673 85.3384 70.5156 85.0855 70.6151C84.8327 70.7145 84.6324 70.8452 84.4847 71.0071L83.0571 70.7727L83.5131 66.2727H88.5756V67.5938H84.8213L84.5699 69.9077H84.621C84.783 69.7173 85.0117 69.5597 85.3071 69.4347C85.6026 69.3068 85.9264 69.2429 86.2787 69.2429C86.8071 69.2429 87.2787 69.3679 87.6935 69.6179C88.1082 69.8651 88.435 70.206 88.6736 70.6406C88.9122 71.0753 89.0315 71.5724 89.0315 72.1321C89.0315 72.7088 88.898 73.223 88.631 73.6747C88.3668 74.1236 87.9989 74.4773 87.5273 74.7358C87.0585 74.9915 86.5159 75.1193 85.8994 75.1193Z" fill="#46484D" style="fill:#46484D;fill:color(display-p3 0.2745 0.2824 0.3020);fill-opacity:1;"/>
</svg>
