<svg width="142" height="79" viewBox="0 0 142 79" fill="none" xmlns="http://www.w3.org/2000/svg">
<g clip-path="url(#clip0_30897_2195)">
<rect width="142" height="79" rx="8" fill="white" style="fill:white;fill-opacity:1;"/>
<path d="M6.77535 28.8749C3.70192 29.4132 0 33.1095 0 33.1095V81H142V19.2765C142 19.2765 138.077 24.7313 134.378 24.9226C131.371 25.0781 130.327 21.6484 127.32 21.8172C123.188 22.0493 123.468 28.0346 119.416 28.8749C113.327 30.1375 112.93 19.2357 106.712 19.2765C99.3023 19.325 101.062 32.0738 93.7256 33.1095C85.1842 34.3152 84.9564 17.5493 76.505 19.2765C72.5201 20.0908 71.8027 24.5404 67.7535 24.9226C62.2131 25.4456 61.4459 17.4365 55.8966 17.018C47.1888 16.3614 49.0701 33.8593 40.3698 33.1095C35.6967 32.7068 34.6147 27.2118 29.9245 27.1811C24.4509 27.1452 23.8204 34.9015 18.3499 35.0856C13.223 35.2582 11.8282 27.9899 6.77535 28.8749Z" fill="url(#paint0_linear_30897_2195)" style=""/>
<path d="M0 33.1095C0 33.1095 3.70192 29.4132 6.77535 28.8749C11.8282 27.9899 13.223 35.2582 18.3499 35.0856C23.8205 34.9015 24.4509 27.1452 29.9245 27.1811C34.6147 27.2118 35.6967 32.7068 40.3698 33.1095C49.0701 33.8593 47.1888 16.3614 55.8966 17.018C61.4459 17.4365 62.2131 25.4456 67.7535 24.9226C71.8027 24.5404 72.5201 20.0908 76.505 19.2765C84.9564 17.5493 85.1842 34.3152 93.7256 33.1095C101.062 32.0738 99.3023 19.325 106.712 19.2765C112.93 19.2357 113.327 30.1375 119.416 28.8749C123.468 28.0346 123.188 22.0493 127.32 21.8172C130.327 21.6484 131.371 25.0781 134.378 24.9226C138.077 24.7313 142 19.2765 142 19.2765" stroke="#46484D" stroke-opacity="0.12" style="stroke:#46484D;stroke:color(display-p3 0.2745 0.2824 0.3020);stroke-opacity:0.12;"/>
<circle cx="55" cy="17" r="4.5" fill="#1167F4" stroke="white" style="fill:#1167F4;fill:color(display-p3 0.0667 0.4039 0.9569);fill-opacity:1;stroke:white;stroke-opacity:1;"/>
<path d="M67.0162 16.9091V7.81818H67.5985V16.9091H67.0162ZM68.8379 10.6378C68.8 10.3016 68.6438 10.0412 68.3691 9.85653C68.0945 9.66951 67.7489 9.57599 67.3322 9.57599C67.0339 9.57599 66.7759 9.62334 66.5581 9.71804C66.3403 9.81037 66.171 9.93821 66.0502 10.1016C65.9319 10.2625 65.8727 10.446 65.8727 10.652C65.8727 10.8248 65.9129 10.974 65.9934 11.0994C66.0763 11.2249 66.184 11.3303 66.3166 11.4155C66.4515 11.4983 66.5959 11.5682 66.7498 11.625C66.9037 11.6795 67.0517 11.7244 67.1937 11.7599L67.9039 11.9446C68.1359 12.0014 68.3739 12.0784 68.6177 12.1754C68.8616 12.2725 69.0877 12.4003 69.296 12.5589C69.5043 12.7176 69.6724 12.9141 69.8002 13.1484C69.9305 13.3828 69.9956 13.6634 69.9956 13.9901C69.9956 14.402 69.889 14.7678 69.676 15.0874C69.4653 15.407 69.1587 15.6591 68.7562 15.8438C68.3561 16.0284 67.872 16.1207 67.3038 16.1207C66.7593 16.1207 66.2882 16.0343 65.8904 15.8615C65.4927 15.6887 65.1814 15.4437 64.9565 15.1264C64.7316 14.8068 64.6073 14.428 64.5836 13.9901H65.6845C65.7058 14.2528 65.791 14.4718 65.9402 14.647C66.0917 14.8198 66.2846 14.9489 66.519 15.0341C66.7557 15.117 67.015 15.1584 67.2967 15.1584C67.6068 15.1584 67.8826 15.1098 68.1241 15.0128C68.368 14.9134 68.5597 14.776 68.6994 14.6009C68.8391 14.4233 68.9089 14.2161 68.9089 13.9794C68.9089 13.764 68.8474 13.5876 68.7243 13.4503C68.6035 13.313 68.439 13.1993 68.2306 13.1094C68.0247 13.0194 67.7915 12.9401 67.5311 12.8714L66.6717 12.6371C66.0893 12.4785 65.6277 12.2453 65.2868 11.9375C64.9482 11.6297 64.7789 11.2225 64.7789 10.7159C64.7789 10.2969 64.8926 9.93111 65.1199 9.61861C65.3471 9.30611 65.6549 9.06345 66.0431 8.89062C66.4314 8.71544 66.8694 8.62784 67.3571 8.62784C67.8495 8.62784 68.2839 8.71425 68.6603 8.88707C69.0391 9.0599 69.3374 9.29782 69.5552 9.60085C69.773 9.90151 69.8867 10.2472 69.8961 10.6378H68.8379ZM71.0547 14.5795V13.6918L74.1974 8.72727H74.897V10.0341H74.4531L72.2053 13.5923V13.6491H76.5128V14.5795H71.0547ZM74.5028 16V14.3097L74.5099 13.9048V8.72727H75.5504V16H74.5028ZM80.1509 16.0994C79.7058 16.0994 79.3058 16.0142 78.9506 15.8438C78.5979 15.6709 78.3162 15.4342 78.1055 15.1335C77.8948 14.8329 77.7823 14.4896 77.7681 14.1037H78.8335C78.8595 14.4162 78.998 14.6731 79.2489 14.8743C79.4999 15.0755 79.8005 15.1761 80.1509 15.1761C80.4303 15.1761 80.6777 15.1122 80.8931 14.9844C81.1109 14.8542 81.2814 14.6754 81.4045 14.4482C81.5299 14.2209 81.5927 13.9616 81.5927 13.6705C81.5927 13.3745 81.5288 13.1106 81.4009 12.8786C81.2731 12.6465 81.0967 12.4643 80.8718 12.3317C80.6493 12.1991 80.3936 12.1316 80.1048 12.1293C79.8846 12.1293 79.6632 12.1671 79.4407 12.2429C79.2182 12.3187 79.0382 12.4181 78.9009 12.5412L77.896 12.392L78.3043 8.72727H82.3029V9.66832H79.217L78.9862 11.7031H79.0288C79.1708 11.5658 79.359 11.451 79.5934 11.3587C79.8301 11.2663 80.0835 11.2202 80.3533 11.2202C80.796 11.2202 81.1902 11.3255 81.5359 11.5362C81.8839 11.7469 82.1573 12.0346 82.3562 12.3991C82.5574 12.7614 82.6568 13.178 82.6545 13.6491C82.6568 14.1203 82.5503 14.5405 82.3349 14.9098C82.1218 15.2791 81.8259 15.5703 81.4471 15.7834C81.0707 15.9941 80.6386 16.0994 80.1509 16.0994ZM86.4089 16.0994C85.8999 16.0994 85.4501 16.0118 85.0595 15.8366C84.6712 15.6615 84.367 15.42 84.1468 15.1122C83.9267 14.8045 83.8178 14.4541 83.8201 14.0611C83.8178 13.7533 83.8805 13.4704 84.0083 13.2124C84.1386 12.9519 84.3149 12.7353 84.5375 12.5625C84.76 12.3873 85.0086 12.276 85.2832 12.2287V12.1861C84.921 12.0985 84.631 11.9044 84.4132 11.6037C84.1954 11.303 84.0877 10.9574 84.09 10.5668C84.0877 10.1951 84.1859 9.86364 84.3848 9.57244C84.586 9.27888 84.8618 9.04806 85.2122 8.87997C85.5626 8.71188 85.9615 8.62784 86.4089 8.62784C86.8516 8.62784 87.247 8.71307 87.595 8.88352C87.9454 9.05161 88.2212 9.28243 88.4224 9.57599C88.6236 9.86719 88.7254 10.1974 88.7278 10.5668C88.7254 10.9574 88.6142 11.303 88.394 11.6037C88.1738 11.9044 87.8874 12.0985 87.5346 12.1861V12.2287C87.8069 12.276 88.0519 12.3873 88.2697 12.5625C88.4899 12.7353 88.6651 12.9519 88.7953 13.2124C88.9279 13.4704 88.9953 13.7533 88.9977 14.0611C88.9953 14.4541 88.8841 14.8045 88.6639 15.1122C88.4437 15.42 88.1383 15.6615 87.7477 15.8366C87.3594 16.0118 86.9132 16.0994 86.4089 16.0994ZM86.4089 15.201C86.7096 15.201 86.97 15.1513 87.1902 15.0518C87.4103 14.95 87.5808 14.8092 87.7015 14.6293C87.8223 14.447 87.8838 14.2339 87.8862 13.9901C87.8838 13.7367 87.8175 13.513 87.6873 13.3189C87.5595 13.1248 87.3855 12.9721 87.1653 12.8608C86.9451 12.7495 86.693 12.6939 86.4089 12.6939C86.1225 12.6939 85.868 12.7495 85.6454 12.8608C85.4229 12.9721 85.2477 13.1248 85.1199 13.3189C84.992 13.513 84.9293 13.7367 84.9316 13.9901C84.9293 14.2339 84.9873 14.447 85.1056 14.6293C85.2264 14.8092 85.398 14.95 85.6206 15.0518C85.8431 15.1513 86.1059 15.201 86.4089 15.201ZM86.4089 11.8168C86.6504 11.8168 86.8646 11.7682 87.0517 11.6712C87.2387 11.5741 87.3855 11.4392 87.492 11.2663C87.6009 11.0935 87.6565 10.8911 87.6589 10.6591C87.6565 10.4318 87.6021 10.233 87.4956 10.0625C87.3914 9.89205 87.2458 9.76065 87.0588 9.66832C86.8717 9.57363 86.6551 9.52628 86.4089 9.52628C86.158 9.52628 85.9378 9.57363 85.7484 9.66832C85.5614 9.76065 85.4158 9.89205 85.3116 10.0625C85.2074 10.233 85.1565 10.4318 85.1589 10.6591C85.1565 10.8911 85.2086 11.0935 85.3152 11.2663C85.4217 11.4392 85.5685 11.5741 85.7555 11.6712C85.9449 11.7682 86.1627 11.8168 86.4089 11.8168ZM92.6882 8.62784C93.0125 8.63021 93.3321 8.68939 93.647 8.8054C93.9619 8.9214 94.246 9.1108 94.4993 9.37358C94.755 9.63636 94.9586 9.99148 95.1101 10.4389C95.264 10.884 95.3421 11.438 95.3445 12.1009C95.3445 12.7377 95.2805 13.3047 95.1527 13.8018C95.0249 14.2966 94.8414 14.7145 94.6023 15.0554C94.3655 15.3963 94.0779 15.6555 93.7393 15.8331C93.4008 16.0107 93.0196 16.0994 92.5959 16.0994C92.1626 16.0994 91.7779 16.0142 91.4418 15.8438C91.1056 15.6733 90.8321 15.4377 90.6214 15.1371C90.4107 14.834 90.2794 14.486 90.2273 14.093H91.3104C91.3814 14.4055 91.5258 14.6589 91.7436 14.853C91.9638 15.0447 92.2479 15.1406 92.5959 15.1406C93.1286 15.1406 93.544 14.9086 93.8423 14.4446C94.1406 13.9782 94.291 13.3272 94.2933 12.4915H94.2365C94.1134 12.6951 93.9595 12.8703 93.7749 13.017C93.5926 13.1638 93.3878 13.2775 93.1605 13.358C92.9332 13.4384 92.6906 13.4787 92.4325 13.4787C92.0135 13.4787 91.6323 13.3757 91.2891 13.1697C90.9458 12.9638 90.6723 12.6809 90.4688 12.321C90.2652 11.9612 90.1634 11.5504 90.1634 11.0888C90.1634 10.6295 90.2675 10.2128 90.4759 9.83878C90.6866 9.46473 90.9801 9.1688 91.3565 8.95099C91.7353 8.73082 92.1792 8.62311 92.6882 8.62784ZM92.6918 9.55114C92.4148 9.55114 92.165 9.61979 91.9425 9.7571C91.7223 9.89205 91.5483 10.0755 91.4205 10.3075C91.2926 10.5372 91.2287 10.7929 91.2287 11.0746C91.2287 11.3563 91.2902 11.612 91.4134 11.8416C91.5388 12.0689 91.7093 12.25 91.9247 12.3849C92.1425 12.5175 92.3911 12.5838 92.6705 12.5838C92.8788 12.5838 93.0729 12.5436 93.2528 12.4631C93.4328 12.3826 93.5902 12.2713 93.7251 12.1293C93.8601 11.9848 93.9654 11.8215 94.0412 11.6392C94.117 11.4569 94.1548 11.2652 94.1548 11.0639C94.1548 10.7964 94.0909 10.5478 93.9631 10.3182C93.8376 10.0885 93.6648 9.90388 93.4446 9.7642C93.2244 9.62216 92.9735 9.55114 92.6918 9.55114Z" fill="#111111" style="fill:#111111;fill:color(display-p3 0.0667 0.0667 0.0667);fill-opacity:1;"/>
</g>
<defs>
<linearGradient id="paint0_linear_30897_2195" x1="71" y1="-305" x2="71" y2="81" gradientUnits="userSpaceOnUse">
<stop stop-color="#46484D" stop-opacity="0" style="stop-color:none;stop-opacity:0;"/>
<stop offset="1" stop-color="#F6F5F3" style="stop-color:#F6F5F3;stop-color:color(display-p3 0.9647 0.9608 0.9529);stop-opacity:1;"/>
</linearGradient>
<clipPath id="clip0_30897_2195">
<rect width="142" height="79" rx="8" fill="white" style="fill:white;fill-opacity:1;"/>
</clipPath>
</defs>
</svg>
