<svg width="158" height="213" viewBox="0 0 158 213" fill="none" xmlns="http://www.w3.org/2000/svg">
<path d="M88 101V162.5L100.5 175.5V219.5" stroke="#46484D" stroke-opacity="0.06" style="stroke:#46484D;stroke:color(display-p3 0.2745 0.2824 0.3020);stroke-opacity:0.06;"/>
<path d="M25 -5V27.5L37.5 34.5V56.5" stroke="#46484D" stroke-opacity="0.06" style="stroke:#46484D;stroke:color(display-p3 0.2745 0.2824 0.3020);stroke-opacity:0.06;"/>
<rect y="51" width="158" height="76" rx="8" fill="white" style="fill:white;fill-opacity:1;"/>
<rect x="0.5" y="51.5" width="157" height="75" rx="7.5" stroke="#46484D" stroke-opacity="0.06" style="stroke:#46484D;stroke:color(display-p3 0.2745 0.2824 0.3020);stroke-opacity:0.06;"/>
<path d="M24 65L32.6603 70V80L24 85L15.3397 80V70L24 65Z" fill="#46484D" fill-opacity="0.06" style="fill:#46484D;fill:color(display-p3 0.2745 0.2824 0.3020);fill-opacity:0.06;"/>
<rect x="14" y="100.5" width="34" height="6" rx="3" fill="#46484D" fill-opacity="0.06" style="fill:#46484D;fill:color(display-p3 0.2745 0.2824 0.3020);fill-opacity:0.06;"/>
<rect x="54" y="100.5" width="50" height="6" rx="3" fill="#46484D" fill-opacity="0.06" style="fill:#46484D;fill:color(display-p3 0.2745 0.2824 0.3020);fill-opacity:0.06;"/>
<rect x="118" y="94" width="26" height="19" rx="4" fill="#46484D" fill-opacity="0.06" style="fill:#46484D;fill:color(display-p3 0.2745 0.2824 0.3020);fill-opacity:0.06;"/>
<rect x="121" y="97" width="20" height="13" rx="2" fill="#46484D" fill-opacity="0.12" style="fill:#46484D;fill:color(display-p3 0.2745 0.2824 0.3020);fill-opacity:0.12;"/>
<g filter="url(#filter0_dddd_32729_1642)">
<rect x="32.5" y="141" width="93" height="22" rx="11" fill="white" style="fill:white;fill-opacity:1;"/>
<rect x="33" y="141.5" width="92" height="21" rx="10.5" stroke="#46484D" stroke-opacity="0.06" style="stroke:#46484D;stroke:color(display-p3 0.2745 0.2824 0.3020);stroke-opacity:0.06;"/>
<path d="M56.7167 151.156L54.3808 153.433L54.9324 156.649C54.9564 156.79 54.8987 156.932 54.7832 157.016C54.7179 157.063 54.6403 157.087 54.5627 157.087C54.5031 157.087 54.4431 157.073 54.3883 157.044L51.5001 155.526L48.6122 157.044C48.4862 157.111 48.3328 157.1 48.2173 157.015C48.1018 156.931 48.0441 156.789 48.0681 156.649L48.6197 153.433L46.2834 151.156C46.1814 151.056 46.1443 150.907 46.1886 150.772C46.2328 150.636 46.3502 150.537 46.4916 150.516L49.7199 150.048L51.1637 147.122C51.2901 146.866 51.7101 146.866 51.8364 147.122L53.2802 150.048L56.5086 150.516C56.6499 150.537 56.7673 150.636 56.8116 150.772C56.8558 150.907 56.8187 151.056 56.7167 151.156Z" fill="#1167F4" style="fill:#1167F4;fill:color(display-p3 0.0667 0.4039 0.9569);fill-opacity:1;"/>
<path d="M70.7167 151.156L68.3808 153.433L68.9324 156.649C68.9564 156.79 68.8987 156.932 68.7832 157.016C68.7179 157.063 68.6403 157.087 68.5627 157.087C68.5031 157.087 68.4431 157.073 68.3883 157.044L65.5001 155.526L62.6122 157.044C62.4862 157.111 62.3328 157.1 62.2173 157.015C62.1018 156.931 62.0441 156.789 62.0681 156.649L62.6197 153.433L60.2834 151.156C60.1814 151.056 60.1443 150.907 60.1886 150.772C60.2328 150.636 60.3502 150.537 60.4916 150.516L63.7199 150.048L65.1637 147.122C65.2901 146.866 65.7101 146.866 65.8364 147.122L67.2802 150.048L70.5086 150.516C70.6499 150.537 70.7673 150.636 70.8116 150.772C70.8558 150.907 70.8187 151.056 70.7167 151.156Z" fill="#1167F4" style="fill:#1167F4;fill:color(display-p3 0.0667 0.4039 0.9569);fill-opacity:1;"/>
<path d="M84.7167 151.156L82.3808 153.433L82.9324 156.649C82.9564 156.79 82.8987 156.932 82.7832 157.016C82.7179 157.063 82.6403 157.087 82.5627 157.087C82.5031 157.087 82.4431 157.073 82.3883 157.044L79.5001 155.526L76.6122 157.044C76.4862 157.111 76.3328 157.1 76.2173 157.015C76.1018 156.931 76.0441 156.789 76.0681 156.649L76.6197 153.433L74.2834 151.156C74.1814 151.056 74.1443 150.907 74.1886 150.772C74.2328 150.636 74.3502 150.537 74.4916 150.516L77.7199 150.048L79.1637 147.122C79.2901 146.866 79.7101 146.866 79.8364 147.122L81.2802 150.048L84.5086 150.516C84.6499 150.537 84.7673 150.636 84.8116 150.772C84.8558 150.907 84.8187 151.056 84.7167 151.156Z" fill="#1167F4" style="fill:#1167F4;fill:color(display-p3 0.0667 0.4039 0.9569);fill-opacity:1;"/>
<path d="M98.7167 151.156L96.3808 153.433L96.9324 156.649C96.9564 156.79 96.8987 156.932 96.7832 157.016C96.7179 157.063 96.6403 157.087 96.5627 157.087C96.5031 157.087 96.4431 157.073 96.3883 157.044L93.5001 155.526L90.6122 157.044C90.4862 157.111 90.3328 157.1 90.2173 157.015C90.1018 156.931 90.0441 156.789 90.0681 156.649L90.6197 153.433L88.2834 151.156C88.1814 151.056 88.1443 150.907 88.1886 150.772C88.2328 150.636 88.3502 150.537 88.4916 150.516L91.7199 150.048L93.1637 147.122C93.2901 146.866 93.7101 146.866 93.8364 147.122L95.2802 150.048L98.5086 150.516C98.6499 150.537 98.7673 150.636 98.8116 150.772C98.8558 150.907 98.8187 151.056 98.7167 151.156Z" fill="#1167F4" style="fill:#1167F4;fill:color(display-p3 0.0667 0.4039 0.9569);fill-opacity:1;"/>
<path d="M112.717 151.156L110.381 153.433L110.932 156.649C110.956 156.79 110.899 156.932 110.783 157.016C110.718 157.063 110.64 157.087 110.563 157.087C110.503 157.087 110.443 157.073 110.388 157.044L107.5 155.526L104.612 157.044C104.486 157.111 104.333 157.1 104.217 157.015C104.102 156.931 104.044 156.789 104.068 156.649L104.62 153.433L102.283 151.156C102.181 151.056 102.144 150.907 102.189 150.772C102.233 150.636 102.35 150.537 102.492 150.516L105.72 150.048L107.164 147.122C107.29 146.866 107.71 146.866 107.836 147.122L109.28 150.048L112.509 150.516C112.65 150.537 112.767 150.636 112.812 150.772C112.856 150.907 112.819 151.056 112.717 151.156Z" fill="#1167F4" style="fill:#1167F4;fill:color(display-p3 0.0667 0.4039 0.9569);fill-opacity:1;"/>
</g>
<defs>
<filter id="filter0_dddd_32729_1642" x="27.5" y="140" width="103" height="39" filterUnits="userSpaceOnUse" color-interpolation-filters="sRGB">
<feFlood flood-opacity="0" result="BackgroundImageFix"/>
<feColorMatrix in="SourceAlpha" type="matrix" values="0 0 0 0 0 0 0 0 0 0 0 0 0 0 0 0 0 0 127 0" result="hardAlpha"/>
<feOffset dy="1"/>
<feGaussianBlur stdDeviation="1"/>
<feColorMatrix type="matrix" values="0 0 0 0 0.6 0 0 0 0 0.6 0 0 0 0 0.6 0 0 0 0.1 0"/>
<feBlend mode="normal" in2="BackgroundImageFix" result="effect1_dropShadow_32729_1642"/>
<feColorMatrix in="SourceAlpha" type="matrix" values="0 0 0 0 0 0 0 0 0 0 0 0 0 0 0 0 0 0 127 0" result="hardAlpha"/>
<feOffset dy="3"/>
<feGaussianBlur stdDeviation="1.5"/>
<feColorMatrix type="matrix" values="0 0 0 0 0.6 0 0 0 0 0.6 0 0 0 0 0.6 0 0 0 0.09 0"/>
<feBlend mode="normal" in2="effect1_dropShadow_32729_1642" result="effect2_dropShadow_32729_1642"/>
<feColorMatrix in="SourceAlpha" type="matrix" values="0 0 0 0 0 0 0 0 0 0 0 0 0 0 0 0 0 0 127 0" result="hardAlpha"/>
<feOffset dy="6"/>
<feGaussianBlur stdDeviation="2"/>
<feColorMatrix type="matrix" values="0 0 0 0 0.6 0 0 0 0 0.6 0 0 0 0 0.6 0 0 0 0.05 0"/>
<feBlend mode="normal" in2="effect2_dropShadow_32729_1642" result="effect3_dropShadow_32729_1642"/>
<feColorMatrix in="SourceAlpha" type="matrix" values="0 0 0 0 0 0 0 0 0 0 0 0 0 0 0 0 0 0 127 0" result="hardAlpha"/>
<feOffset dy="11"/>
<feGaussianBlur stdDeviation="2.5"/>
<feColorMatrix type="matrix" values="0 0 0 0 0.6 0 0 0 0 0.6 0 0 0 0 0.6 0 0 0 0.01 0"/>
<feBlend mode="normal" in2="effect3_dropShadow_32729_1642" result="effect4_dropShadow_32729_1642"/>
<feBlend mode="normal" in="SourceGraphic" in2="effect4_dropShadow_32729_1642" result="shape"/>
</filter>
</defs>
</svg>
